<svg id="visual" viewBox="0 0 960 540" width="960" height="540" xmlns="http://www.w3.org/2000/svg" xmlns:xlink="http://www.w3.org/1999/xlink" version="1.1"><rect x="0" y="0" width="960" height="540" fill="#072a44"></rect><path d="M0 449L7.7 442.8C15.3 436.7 30.7 424.3 45.8 422C61 419.7 76 427.3 91.2 430.3C106.3 433.3 121.7 431.7 137 428.2C152.3 424.7 167.7 419.3 183 423.2C198.3 427 213.7 440 228.8 441C244 442 259 431 274.2 429.5C289.3 428 304.7 436 320 442.5C335.3 449 350.7 454 365.8 453.5C381 453 396 447 411.2 445.7C426.3 444.3 441.7 447.7 457 442.7C472.3 437.7 487.7 424.3 503 420.7C518.3 417 533.7 423 548.8 422.5C564 422 579 415 594.2 416C609.3 417 624.7 426 640 427.2C655.3 428.3 670.7 421.7 685.8 418.3C701 415 716 415 731.2 421.7C746.3 428.3 761.7 441.7 777 448C792.3 454.3 807.7 453.7 823 450.5C838.3 447.3 853.7 441.7 868.8 434.2C884 426.7 899 417.3 914.2 414.8C929.3 412.3 944.7 416.7 952.3 418.8L960 421L960 541L952.3 541C944.7 541 929.3 541 914.2 541C899 541 884 541 868.8 541C853.7 541 838.3 541 823 541C807.7 541 792.3 541 777 541C761.7 541 746.3 541 731.2 541C716 541 701 541 685.8 541C670.7 541 655.3 541 640 541C624.7 541 609.3 541 594.2 541C579 541 564 541 548.8 541C533.7 541 518.3 541 503 541C487.7 541 472.3 541 457 541C441.7 541 426.3 541 411.2 541C396 541 381 541 365.8 541C350.7 541 335.3 541 320 541C304.7 541 289.3 541 274.2 541C259 541 244 541 228.8 541C213.7 541 198.3 541 183 541C167.7 541 152.3 541 137 541C121.7 541 106.3 541 91.2 541C76 541 61 541 45.8 541C30.7 541 15.3 541 7.7 541L0 541Z" fill="#c62368"></path><path d="M0 441L7.7 440.3C15.3 439.7 30.7 438.3 45.8 435.5C61 432.7 76 428.3 91.2 432.2C106.3 436 121.7 448 137 450C152.3 452 167.7 444 183 440C198.3 436 213.7 436 228.8 436.3C244 436.7 259 437.3 274.2 437C289.3 436.7 304.7 435.3 320 435.7C335.3 436 350.7 438 365.8 440.3C381 442.7 396 445.3 411.2 449.7C426.3 454 441.7 460 457 459.8C472.3 459.7 487.7 453.3 503 450.7C518.3 448 533.7 449 548.8 450.2C564 451.3 579 452.7 594.2 450.2C609.3 447.7 624.7 441.3 640 438.7C655.3 436 670.7 437 685.8 441.5C701 446 716 454 731.2 457.2C746.3 460.3 761.7 458.7 777 458C792.3 457.3 807.7 457.7 823 456.7C838.3 455.7 853.7 453.3 868.8 448C884 442.7 899 434.3 914.2 430.5C929.3 426.7 944.7 427.3 952.3 427.7L960 428L960 541L952.3 541C944.7 541 929.3 541 914.2 541C899 541 884 541 868.8 541C853.7 541 838.3 541 823 541C807.7 541 792.3 541 777 541C761.7 541 746.3 541 731.2 541C716 541 701 541 685.8 541C670.7 541 655.3 541 640 541C624.7 541 609.3 541 594.2 541C579 541 564 541 548.8 541C533.7 541 518.3 541 503 541C487.7 541 472.3 541 457 541C441.7 541 426.3 541 411.2 541C396 541 381 541 365.8 541C350.7 541 335.3 541 320 541C304.7 541 289.3 541 274.2 541C259 541 244 541 228.8 541C213.7 541 198.3 541 183 541C167.7 541 152.3 541 137 541C121.7 541 106.3 541 91.2 541C76 541 61 541 45.8 541C30.7 541 15.3 541 7.7 541L0 541Z" fill="#d04979"></path><path d="M0 446L7.7 447.3C15.3 448.7 30.7 451.3 45.8 453.2C61 455 76 456 91.2 457.8C106.3 459.7 121.7 462.3 137 463.8C152.3 465.3 167.7 465.7 183 462.7C198.3 459.7 213.7 453.3 228.8 451.7C244 450 259 453 274.2 455.2C289.3 457.3 304.7 458.7 320 460C335.3 461.3 350.7 462.7 365.8 459.7C381 456.7 396 449.3 411.2 448.2C426.3 447 441.7 452 457 450.5C472.3 449 487.7 441 503 440.7C518.3 440.3 533.7 447.7 548.8 449.8C564 452 579 449 594.2 446.2C609.3 443.3 624.7 440.7 640 440C655.3 439.3 670.7 440.7 685.8 446C701 451.3 716 460.7 731.2 460.8C746.3 461 761.7 452 777 451.2C792.3 450.3 807.7 457.7 823 457.2C838.3 456.7 853.7 448.3 868.8 449.7C884 451 899 462 914.2 460.8C929.3 459.7 944.7 446.3 952.3 439.7L960 433L960 541L952.3 541C944.7 541 929.3 541 914.2 541C899 541 884 541 868.8 541C853.7 541 838.3 541 823 541C807.7 541 792.3 541 777 541C761.7 541 746.3 541 731.2 541C716 541 701 541 685.8 541C670.7 541 655.3 541 640 541C624.7 541 609.3 541 594.2 541C579 541 564 541 548.8 541C533.7 541 518.3 541 503 541C487.7 541 472.3 541 457 541C441.7 541 426.3 541 411.2 541C396 541 381 541 365.8 541C350.7 541 335.3 541 320 541C304.7 541 289.3 541 274.2 541C259 541 244 541 228.8 541C213.7 541 198.3 541 183 541C167.7 541 152.3 541 137 541C121.7 541 106.3 541 91.2 541C76 541 61 541 45.8 541C30.7 541 15.3 541 7.7 541L0 541Z" fill="#da678b"></path><path d="M0 474L7.7 472C15.3 470 30.7 466 45.8 463C61 460 76 458 91.2 460.7C106.3 463.3 121.7 470.7 137 471.2C152.3 471.7 167.7 465.3 183 462.7C198.3 460 213.7 461 228.8 463.8C244 466.7 259 471.3 274.2 473.2C289.3 475 304.7 474 320 469C335.3 464 350.7 455 365.8 455.2C381 455.3 396 464.7 411.2 467.3C426.3 470 441.7 466 457 463.7C472.3 461.3 487.7 460.7 503 463.8C518.3 467 533.7 474 548.8 474.3C564 474.7 579 468.3 594.2 462.8C609.3 457.3 624.7 452.7 640 454.3C655.3 456 670.7 464 685.8 465.5C701 467 716 462 731.2 458.5C746.3 455 761.7 453 777 453.3C792.3 453.7 807.7 456.3 823 461.8C838.3 467.3 853.7 475.7 868.8 474C884 472.3 899 460.7 914.2 458.7C929.3 456.7 944.7 464.3 952.3 468.2L960 472L960 541L952.3 541C944.7 541 929.3 541 914.2 541C899 541 884 541 868.8 541C853.7 541 838.3 541 823 541C807.7 541 792.3 541 777 541C761.7 541 746.3 541 731.2 541C716 541 701 541 685.8 541C670.7 541 655.3 541 640 541C624.7 541 609.3 541 594.2 541C579 541 564 541 548.8 541C533.7 541 518.3 541 503 541C487.7 541 472.3 541 457 541C441.7 541 426.3 541 411.2 541C396 541 381 541 365.8 541C350.7 541 335.3 541 320 541C304.7 541 289.3 541 274.2 541C259 541 244 541 228.8 541C213.7 541 198.3 541 183 541C167.7 541 152.3 541 137 541C121.7 541 106.3 541 91.2 541C76 541 61 541 45.8 541C30.7 541 15.3 541 7.7 541L0 541Z" fill="#e2819d"></path><path d="M0 476L7.7 476.2C15.3 476.3 30.7 476.7 45.8 479.5C61 482.3 76 487.7 91.2 485.5C106.3 483.3 121.7 473.7 137 468.3C152.3 463 167.7 462 183 467C198.3 472 213.7 483 228.8 485.2C244 487.3 259 480.7 274.2 477.3C289.3 474 304.7 474 320 473.3C335.3 472.7 350.7 471.3 365.8 473.8C381 476.3 396 482.7 411.2 482.3C426.3 482 441.7 475 457 471.3C472.3 467.7 487.7 467.3 503 466.5C518.3 465.7 533.7 464.3 548.8 463.7C564 463 579 463 594.2 465C609.3 467 624.7 471 640 471.8C655.3 472.7 670.7 470.3 685.8 473.3C701 476.3 716 484.7 731.2 486.3C746.3 488 761.7 483 777 479.8C792.3 476.7 807.7 475.3 823 478.2C838.3 481 853.7 488 868.8 490.5C884 493 899 491 914.2 488C929.3 485 944.7 481 952.3 479L960 477L960 541L952.3 541C944.7 541 929.3 541 914.2 541C899 541 884 541 868.8 541C853.7 541 838.3 541 823 541C807.7 541 792.3 541 777 541C761.7 541 746.3 541 731.2 541C716 541 701 541 685.8 541C670.7 541 655.3 541 640 541C624.7 541 609.3 541 594.2 541C579 541 564 541 548.8 541C533.7 541 518.3 541 503 541C487.7 541 472.3 541 457 541C441.7 541 426.3 541 411.2 541C396 541 381 541 365.8 541C350.7 541 335.3 541 320 541C304.7 541 289.3 541 274.2 541C259 541 244 541 228.8 541C213.7 541 198.3 541 183 541C167.7 541 152.3 541 137 541C121.7 541 106.3 541 91.2 541C76 541 61 541 45.8 541C30.7 541 15.3 541 7.7 541L0 541Z" fill="#ea9bb0"></path><path d="M0 476L7.7 477.2C15.3 478.3 30.7 480.7 45.8 484.7C61 488.7 76 494.3 91.2 494.5C106.3 494.7 121.7 489.3 137 487C152.3 484.7 167.7 485.3 183 485.5C198.3 485.7 213.7 485.3 228.8 484.3C244 483.3 259 481.7 274.2 481.2C289.3 480.7 304.7 481.3 320 483.8C335.3 486.3 350.7 490.7 365.8 493.3C381 496 396 497 411.2 495.3C426.3 493.7 441.7 489.3 457 488.3C472.3 487.3 487.7 489.7 503 492.2C518.3 494.7 533.7 497.3 548.8 498.3C564 499.3 579 498.7 594.2 498.2C609.3 497.7 624.7 497.3 640 497C655.3 496.7 670.7 496.3 685.8 495.3C701 494.3 716 492.7 731.2 488.8C746.3 485 761.7 479 777 477.5C792.3 476 807.7 479 823 480.2C838.3 481.3 853.7 480.7 868.8 482.5C884 484.3 899 488.7 914.2 488.2C929.3 487.7 944.7 482.3 952.3 479.7L960 477L960 541L952.3 541C944.7 541 929.3 541 914.2 541C899 541 884 541 868.8 541C853.7 541 838.3 541 823 541C807.7 541 792.3 541 777 541C761.7 541 746.3 541 731.2 541C716 541 701 541 685.8 541C670.7 541 655.3 541 640 541C624.7 541 609.3 541 594.2 541C579 541 564 541 548.8 541C533.7 541 518.3 541 503 541C487.7 541 472.3 541 457 541C441.7 541 426.3 541 411.2 541C396 541 381 541 365.8 541C350.7 541 335.3 541 320 541C304.7 541 289.3 541 274.2 541C259 541 244 541 228.8 541C213.7 541 198.3 541 183 541C167.7 541 152.3 541 137 541C121.7 541 106.3 541 91.2 541C76 541 61 541 45.8 541C30.7 541 15.3 541 7.7 541L0 541Z" fill="#f1b4c3"></path><path d="M0 488L7.7 491.8C15.3 495.7 30.7 503.3 45.8 504.5C61 505.7 76 500.3 91.2 496.5C106.3 492.7 121.7 490.3 137 490.5C152.3 490.7 167.7 493.3 183 496.3C198.3 499.3 213.7 502.7 228.8 504.7C244 506.7 259 507.3 274.2 506.5C289.3 505.7 304.7 503.3 320 502.2C335.3 501 350.7 501 365.8 502.3C381 503.7 396 506.3 411.2 504.7C426.3 503 441.7 497 457 495C472.3 493 487.7 495 503 494.8C518.3 494.7 533.7 492.3 548.8 493.2C564 494 579 498 594.2 501.8C609.3 505.7 624.7 509.3 640 508.3C655.3 507.3 670.7 501.7 685.8 499.2C701 496.7 716 497.3 731.2 496.7C746.3 496 761.7 494 777 492.5C792.3 491 807.7 490 823 491.5C838.3 493 853.7 497 868.8 497.5C884 498 899 495 914.2 493.8C929.3 492.7 944.7 493.3 952.3 493.7L960 494L960 541L952.3 541C944.7 541 929.3 541 914.2 541C899 541 884 541 868.8 541C853.7 541 838.3 541 823 541C807.7 541 792.3 541 777 541C761.7 541 746.3 541 731.2 541C716 541 701 541 685.8 541C670.7 541 655.3 541 640 541C624.7 541 609.3 541 594.2 541C579 541 564 541 548.8 541C533.7 541 518.3 541 503 541C487.7 541 472.3 541 457 541C441.7 541 426.3 541 411.2 541C396 541 381 541 365.8 541C350.7 541 335.3 541 320 541C304.7 541 289.3 541 274.2 541C259 541 244 541 228.8 541C213.7 541 198.3 541 183 541C167.7 541 152.3 541 137 541C121.7 541 106.3 541 91.2 541C76 541 61 541 45.8 541C30.7 541 15.3 541 7.7 541L0 541Z" fill="#f7cdd7"></path><path d="M0 518L7.7 515.5C15.3 513 30.7 508 45.8 507.2C61 506.3 76 509.7 91.2 510.3C106.3 511 121.7 509 137 507.5C152.3 506 167.7 505 183 506.7C198.3 508.3 213.7 512.7 228.8 515.2C244 517.7 259 518.3 274.2 519C289.3 519.7 304.7 520.3 320 518.7C335.3 517 350.7 513 365.8 511.7C381 510.3 396 511.7 411.2 511.5C426.3 511.3 441.7 509.7 457 509C472.3 508.3 487.7 508.7 503 507.7C518.3 506.7 533.7 504.3 548.8 505.3C564 506.3 579 510.7 594.2 513.7C609.3 516.7 624.7 518.3 640 519.3C655.3 520.3 670.7 520.7 685.8 518C701 515.3 716 509.7 731.2 508.3C746.3 507 761.7 510 777 510.7C792.3 511.3 807.7 509.7 823 507.8C838.3 506 853.7 504 868.8 503.5C884 503 899 504 914.2 507C929.3 510 944.7 515 952.3 517.5L960 520L960 541L952.3 541C944.7 541 929.3 541 914.2 541C899 541 884 541 868.8 541C853.7 541 838.3 541 823 541C807.7 541 792.3 541 777 541C761.7 541 746.3 541 731.2 541C716 541 701 541 685.8 541C670.7 541 655.3 541 640 541C624.7 541 609.3 541 594.2 541C579 541 564 541 548.8 541C533.7 541 518.3 541 503 541C487.7 541 472.3 541 457 541C441.7 541 426.3 541 411.2 541C396 541 381 541 365.8 541C350.7 541 335.3 541 320 541C304.7 541 289.3 541 274.2 541C259 541 244 541 228.8 541C213.7 541 198.3 541 183 541C167.7 541 152.3 541 137 541C121.7 541 106.3 541 91.2 541C76 541 61 541 45.8 541C30.7 541 15.3 541 7.7 541L0 541Z" fill="#fbe6eb"></path><path d="M0 519L7.7 521C15.3 523 30.7 527 45.8 526.5C61 526 76 521 91.2 521C106.3 521 121.7 526 137 526.2C152.3 526.3 167.7 521.7 183 520.2C198.3 518.7 213.7 520.3 228.8 520.5C244 520.7 259 519.3 274.2 520.2C289.3 521 304.7 524 320 524.2C335.3 524.3 350.7 521.7 365.8 520C381 518.3 396 517.7 411.2 517.5C426.3 517.3 441.7 517.7 457 517.8C472.3 518 487.7 518 503 517.7C518.3 517.3 533.7 516.7 548.8 517.5C564 518.3 579 520.7 594.2 520.7C609.3 520.7 624.7 518.3 640 518.5C655.3 518.7 670.7 521.3 685.8 523.3C701 525.3 716 526.7 731.2 525.5C746.3 524.3 761.7 520.7 777 521.2C792.3 521.7 807.7 526.3 823 528.5C838.3 530.7 853.7 530.3 868.8 529.3C884 528.3 899 526.7 914.2 525C929.3 523.3 944.7 521.7 952.3 520.8L960 520L960 541L952.3 541C944.7 541 929.3 541 914.2 541C899 541 884 541 868.8 541C853.7 541 838.3 541 823 541C807.7 541 792.3 541 777 541C761.7 541 746.3 541 731.2 541C716 541 701 541 685.8 541C670.7 541 655.3 541 640 541C624.7 541 609.3 541 594.2 541C579 541 564 541 548.8 541C533.7 541 518.3 541 503 541C487.7 541 472.3 541 457 541C441.7 541 426.3 541 411.2 541C396 541 381 541 365.8 541C350.7 541 335.3 541 320 541C304.7 541 289.3 541 274.2 541C259 541 244 541 228.8 541C213.7 541 198.3 541 183 541C167.7 541 152.3 541 137 541C121.7 541 106.3 541 91.2 541C76 541 61 541 45.8 541C30.7 541 15.3 541 7.7 541L0 541Z" fill="#ffffff"></path></svg>