<svg id="visual" viewBox="0 0 960 540" width="960" height="540" xmlns="http://www.w3.org/2000/svg" xmlns:xlink="http://www.w3.org/1999/xlink" version="1.1"><rect x="0" y="0" width="960" height="540" fill="#ffffff"></rect><path d="M0 70L7.7 80.3C15.3 90.7 30.7 111.3 45.8 120C61 128.7 76 125.3 91.2 121.7C106.3 118 121.7 114 137 105.8C152.3 97.7 167.7 85.3 183 83C198.3 80.7 213.7 88.3 228.8 94.3C244 100.3 259 104.7 274.2 110.8C289.3 117 304.7 125 320 128.7C335.3 132.3 350.7 131.7 365.8 126.5C381 121.3 396 111.7 411.2 108C426.3 104.3 441.7 106.7 457 111C472.3 115.3 487.7 121.7 503 127.3C518.3 133 533.7 138 548.8 138.8C564 139.7 579 136.3 594.2 135.7C609.3 135 624.7 137 640 136.7C655.3 136.3 670.7 133.7 685.8 131.3C701 129 716 127 731.2 124.2C746.3 121.3 761.7 117.7 777 108.7C792.3 99.7 807.7 85.3 823 85.5C838.3 85.7 853.7 100.3 868.8 107C884 113.7 899 112.3 914.2 110.8C929.3 109.3 944.7 107.7 952.3 106.8L960 106L960 0L952.3 0C944.7 0 929.3 0 914.2 0C899 0 884 0 868.8 0C853.7 0 838.3 0 823 0C807.7 0 792.3 0 777 0C761.7 0 746.3 0 731.2 0C716 0 701 0 685.8 0C670.7 0 655.3 0 640 0C624.7 0 609.3 0 594.2 0C579 0 564 0 548.8 0C533.7 0 518.3 0 503 0C487.7 0 472.3 0 457 0C441.7 0 426.3 0 411.2 0C396 0 381 0 365.8 0C350.7 0 335.3 0 320 0C304.7 0 289.3 0 274.2 0C259 0 244 0 228.8 0C213.7 0 198.3 0 183 0C167.7 0 152.3 0 137 0C121.7 0 106.3 0 91.2 0C76 0 61 0 45.8 0C30.7 0 15.3 0 7.7 0L0 0Z" fill="#575757"></path><path d="M0 87L7.7 94.8C15.3 102.7 30.7 118.3 45.8 126.7C61 135 76 136 91.2 128.5C106.3 121 121.7 105 137 104.5C152.3 104 167.7 119 183 125.3C198.3 131.7 213.7 129.3 228.8 121.3C244 113.3 259 99.7 274.2 88.5C289.3 77.3 304.7 68.7 320 65.8C335.3 63 350.7 66 365.8 66C381 66 396 63 411.2 67.7C426.3 72.3 441.7 84.7 457 96C472.3 107.3 487.7 117.7 503 123C518.3 128.3 533.7 128.7 548.8 123.3C564 118 579 107 594.2 97.5C609.3 88 624.7 80 640 83C655.3 86 670.7 100 685.8 97.8C701 95.7 716 77.3 731.2 80.7C746.3 84 761.7 109 777 114C792.3 119 807.7 104 823 101.8C838.3 99.7 853.7 110.3 868.8 117.7C884 125 899 129 914.2 119.3C929.3 109.7 944.7 86.3 952.3 74.7L960 63L960 0L952.3 0C944.7 0 929.3 0 914.2 0C899 0 884 0 868.8 0C853.7 0 838.3 0 823 0C807.7 0 792.3 0 777 0C761.7 0 746.3 0 731.2 0C716 0 701 0 685.8 0C670.7 0 655.3 0 640 0C624.7 0 609.3 0 594.2 0C579 0 564 0 548.8 0C533.7 0 518.3 0 503 0C487.7 0 472.3 0 457 0C441.7 0 426.3 0 411.2 0C396 0 381 0 365.8 0C350.7 0 335.3 0 320 0C304.7 0 289.3 0 274.2 0C259 0 244 0 228.8 0C213.7 0 198.3 0 183 0C167.7 0 152.3 0 137 0C121.7 0 106.3 0 91.2 0C76 0 61 0 45.8 0C30.7 0 15.3 0 7.7 0L0 0Z" fill="#656565"></path><path d="M0 98L7.7 91.3C15.3 84.7 30.7 71.3 45.8 67.2C61 63 76 68 91.2 73.2C106.3 78.3 121.7 83.7 137 88C152.3 92.3 167.7 95.7 183 101.5C198.3 107.3 213.7 115.7 228.8 118.5C244 121.3 259 118.7 274.2 116.5C289.3 114.3 304.7 112.7 320 114.2C335.3 115.7 350.7 120.3 365.8 120.2C381 120 396 115 411.2 113.2C426.3 111.3 441.7 112.7 457 111.2C472.3 109.7 487.7 105.3 503 103C518.3 100.7 533.7 100.3 548.8 97.3C564 94.3 579 88.7 594.2 85.7C609.3 82.7 624.7 82.3 640 87.5C655.3 92.7 670.7 103.3 685.8 105C701 106.7 716 99.3 731.2 94.5C746.3 89.7 761.7 87.3 777 91.7C792.3 96 807.7 107 823 103.7C838.3 100.3 853.7 82.7 868.8 74.7C884 66.7 899 68.3 914.2 70.5C929.3 72.7 944.7 75.3 952.3 76.7L960 78L960 0L952.3 0C944.7 0 929.3 0 914.2 0C899 0 884 0 868.8 0C853.7 0 838.3 0 823 0C807.7 0 792.3 0 777 0C761.7 0 746.3 0 731.2 0C716 0 701 0 685.8 0C670.7 0 655.3 0 640 0C624.7 0 609.3 0 594.2 0C579 0 564 0 548.8 0C533.7 0 518.3 0 503 0C487.7 0 472.3 0 457 0C441.7 0 426.3 0 411.2 0C396 0 381 0 365.8 0C350.7 0 335.3 0 320 0C304.7 0 289.3 0 274.2 0C259 0 244 0 228.8 0C213.7 0 198.3 0 183 0C167.7 0 152.3 0 137 0C121.7 0 106.3 0 91.2 0C76 0 61 0 45.8 0C30.7 0 15.3 0 7.7 0L0 0Z" fill="#737373"></path><path d="M0 52L7.7 58.8C15.3 65.7 30.7 79.3 45.8 86.3C61 93.3 76 93.7 91.2 95.2C106.3 96.7 121.7 99.3 137 93.8C152.3 88.3 167.7 74.7 183 74.7C198.3 74.7 213.7 88.3 228.8 90.3C244 92.3 259 82.7 274.2 82.7C289.3 82.7 304.7 92.3 320 93.8C335.3 95.3 350.7 88.7 365.8 88.7C381 88.7 396 95.3 411.2 100.3C426.3 105.3 441.7 108.7 457 100.5C472.3 92.3 487.7 72.7 503 72.3C518.3 72 533.7 91 548.8 93.5C564 96 579 82 594.2 76.5C609.3 71 624.7 74 640 75.7C655.3 77.3 670.7 77.7 685.8 78.2C701 78.7 716 79.3 731.2 80.5C746.3 81.7 761.7 83.3 777 86.5C792.3 89.7 807.7 94.3 823 96C838.3 97.7 853.7 96.3 868.8 91.5C884 86.7 899 78.3 914.2 80C929.3 81.7 944.7 93.3 952.3 99.2L960 105L960 0L952.3 0C944.7 0 929.3 0 914.2 0C899 0 884 0 868.8 0C853.7 0 838.3 0 823 0C807.7 0 792.3 0 777 0C761.7 0 746.3 0 731.2 0C716 0 701 0 685.8 0C670.7 0 655.3 0 640 0C624.7 0 609.3 0 594.2 0C579 0 564 0 548.8 0C533.7 0 518.3 0 503 0C487.7 0 472.3 0 457 0C441.7 0 426.3 0 411.2 0C396 0 381 0 365.8 0C350.7 0 335.3 0 320 0C304.7 0 289.3 0 274.2 0C259 0 244 0 228.8 0C213.7 0 198.3 0 183 0C167.7 0 152.3 0 137 0C121.7 0 106.3 0 91.2 0C76 0 61 0 45.8 0C30.7 0 15.3 0 7.7 0L0 0Z" fill="#818181"></path><path d="M0 100L7.7 95.2C15.3 90.3 30.7 80.7 45.8 75.8C61 71 76 71 91.2 69.5C106.3 68 121.7 65 137 62.7C152.3 60.3 167.7 58.7 183 61.8C198.3 65 213.7 73 228.8 79C244 85 259 89 274.2 91.7C289.3 94.3 304.7 95.7 320 97C335.3 98.3 350.7 99.7 365.8 98.5C381 97.3 396 93.7 411.2 84C426.3 74.3 441.7 58.7 457 51.5C472.3 44.3 487.7 45.7 503 47.7C518.3 49.7 533.7 52.3 548.8 57.7C564 63 579 71 594.2 77.3C609.3 83.7 624.7 88.3 640 87.8C655.3 87.3 670.7 81.7 685.8 74.5C701 67.3 716 58.7 731.2 54.7C746.3 50.7 761.7 51.3 777 50C792.3 48.7 807.7 45.3 823 48.8C838.3 52.3 853.7 62.7 868.8 66.5C884 70.3 899 67.7 914.2 68.7C929.3 69.7 944.7 74.3 952.3 76.7L960 79L960 0L952.3 0C944.7 0 929.3 0 914.2 0C899 0 884 0 868.8 0C853.7 0 838.3 0 823 0C807.7 0 792.3 0 777 0C761.7 0 746.3 0 731.2 0C716 0 701 0 685.8 0C670.7 0 655.3 0 640 0C624.7 0 609.3 0 594.2 0C579 0 564 0 548.8 0C533.7 0 518.3 0 503 0C487.7 0 472.3 0 457 0C441.7 0 426.3 0 411.2 0C396 0 381 0 365.8 0C350.7 0 335.3 0 320 0C304.7 0 289.3 0 274.2 0C259 0 244 0 228.8 0C213.7 0 198.3 0 183 0C167.7 0 152.3 0 137 0C121.7 0 106.3 0 91.2 0C76 0 61 0 45.8 0C30.7 0 15.3 0 7.7 0L0 0Z" fill="#909090"></path><path d="M0 84L7.7 80.8C15.3 77.7 30.7 71.3 45.8 69.8C61 68.3 76 71.7 91.2 72C106.3 72.3 121.7 69.7 137 70.8C152.3 72 167.7 77 183 81.2C198.3 85.3 213.7 88.7 228.8 84.2C244 79.7 259 67.3 274.2 65.5C289.3 63.7 304.7 72.3 320 71.5C335.3 70.7 350.7 60.3 365.8 58C381 55.7 396 61.3 411.2 64.3C426.3 67.3 441.7 67.7 457 69.3C472.3 71 487.7 74 503 70.8C518.3 67.7 533.7 58.3 548.8 54.2C564 50 579 51 594.2 56.7C609.3 62.3 624.7 72.7 640 70C655.3 67.3 670.7 51.7 685.8 47C701 42.3 716 48.7 731.2 53.2C746.3 57.7 761.7 60.3 777 62.3C792.3 64.3 807.7 65.7 823 69C838.3 72.3 853.7 77.7 868.8 76.5C884 75.3 899 67.7 914.2 67.3C929.3 67 944.7 74 952.3 77.5L960 81L960 0L952.3 0C944.7 0 929.3 0 914.2 0C899 0 884 0 868.8 0C853.7 0 838.3 0 823 0C807.7 0 792.3 0 777 0C761.7 0 746.3 0 731.2 0C716 0 701 0 685.8 0C670.7 0 655.3 0 640 0C624.7 0 609.3 0 594.2 0C579 0 564 0 548.8 0C533.7 0 518.3 0 503 0C487.7 0 472.3 0 457 0C441.7 0 426.3 0 411.2 0C396 0 381 0 365.8 0C350.7 0 335.3 0 320 0C304.7 0 289.3 0 274.2 0C259 0 244 0 228.8 0C213.7 0 198.3 0 183 0C167.7 0 152.3 0 137 0C121.7 0 106.3 0 91.2 0C76 0 61 0 45.8 0C30.7 0 15.3 0 7.7 0L0 0Z" fill="#9f9f9f"></path><path d="M0 68L7.7 66.5C15.3 65 30.7 62 45.8 58.5C61 55 76 51 91.2 51C106.3 51 121.7 55 137 59.8C152.3 64.7 167.7 70.3 183 66.2C198.3 62 213.7 48 228.8 46.3C244 44.7 259 55.3 274.2 58.3C289.3 61.3 304.7 56.7 320 55.2C335.3 53.7 350.7 55.3 365.8 58.3C381 61.3 396 65.7 411.2 69C426.3 72.3 441.7 74.7 457 72.2C472.3 69.7 487.7 62.3 503 57.3C518.3 52.3 533.7 49.7 548.8 46C564 42.3 579 37.7 594.2 35.8C609.3 34 624.7 35 640 35C655.3 35 670.7 34 685.8 38.5C701 43 716 53 731.2 59.8C746.3 66.7 761.7 70.3 777 69.7C792.3 69 807.7 64 823 64.5C838.3 65 853.7 71 868.8 73.8C884 76.7 899 76.3 914.2 68.7C929.3 61 944.7 46 952.3 38.5L960 31L960 0L952.3 0C944.7 0 929.3 0 914.2 0C899 0 884 0 868.8 0C853.7 0 838.3 0 823 0C807.7 0 792.3 0 777 0C761.7 0 746.3 0 731.2 0C716 0 701 0 685.8 0C670.7 0 655.3 0 640 0C624.7 0 609.3 0 594.2 0C579 0 564 0 548.8 0C533.7 0 518.3 0 503 0C487.7 0 472.3 0 457 0C441.7 0 426.3 0 411.2 0C396 0 381 0 365.8 0C350.7 0 335.3 0 320 0C304.7 0 289.3 0 274.2 0C259 0 244 0 228.8 0C213.7 0 198.3 0 183 0C167.7 0 152.3 0 137 0C121.7 0 106.3 0 91.2 0C76 0 61 0 45.8 0C30.7 0 15.3 0 7.7 0L0 0Z" fill="#afafaf"></path><path d="M0 57L7.7 56.3C15.3 55.7 30.7 54.3 45.8 51C61 47.7 76 42.3 91.2 41C106.3 39.7 121.7 42.3 137 41C152.3 39.7 167.7 34.3 183 37.2C198.3 40 213.7 51 228.8 53C244 55 259 48 274.2 46.2C289.3 44.3 304.7 47.7 320 49C335.3 50.3 350.7 49.7 365.8 50.2C381 50.7 396 52.3 411.2 53.7C426.3 55 441.7 56 457 54.7C472.3 53.3 487.7 49.7 503 50.3C518.3 51 533.7 56 548.8 58.7C564 61.3 579 61.7 594.2 58C609.3 54.3 624.7 46.7 640 44.5C655.3 42.3 670.7 45.7 685.8 50.2C701 54.7 716 60.3 731.2 59.5C746.3 58.7 761.7 51.3 777 45.5C792.3 39.7 807.7 35.3 823 36.3C838.3 37.3 853.7 43.7 868.8 48C884 52.3 899 54.7 914.2 55.2C929.3 55.7 944.7 54.3 952.3 53.7L960 53L960 0L952.3 0C944.7 0 929.3 0 914.2 0C899 0 884 0 868.8 0C853.7 0 838.3 0 823 0C807.7 0 792.3 0 777 0C761.7 0 746.3 0 731.2 0C716 0 701 0 685.8 0C670.7 0 655.3 0 640 0C624.7 0 609.3 0 594.2 0C579 0 564 0 548.8 0C533.7 0 518.3 0 503 0C487.7 0 472.3 0 457 0C441.7 0 426.3 0 411.2 0C396 0 381 0 365.8 0C350.7 0 335.3 0 320 0C304.7 0 289.3 0 274.2 0C259 0 244 0 228.8 0C213.7 0 198.3 0 183 0C167.7 0 152.3 0 137 0C121.7 0 106.3 0 91.2 0C76 0 61 0 45.8 0C30.7 0 15.3 0 7.7 0L0 0Z" fill="#bebebe"></path><path d="M0 39L7.7 39.8C15.3 40.7 30.7 42.3 45.8 41.3C61 40.3 76 36.7 91.2 36.5C106.3 36.3 121.7 39.7 137 38.5C152.3 37.3 167.7 31.7 183 33.5C198.3 35.3 213.7 44.7 228.8 49.2C244 53.7 259 53.3 274.2 51C289.3 48.7 304.7 44.3 320 44.7C335.3 45 350.7 50 365.8 48.8C381 47.7 396 40.3 411.2 35.2C426.3 30 441.7 27 457 30.5C472.3 34 487.7 44 503 45.3C518.3 46.7 533.7 39.3 548.8 38.5C564 37.7 579 43.3 594.2 46.2C609.3 49 624.7 49 640 49.3C655.3 49.7 670.7 50.3 685.8 48C701 45.7 716 40.3 731.2 37.7C746.3 35 761.7 35 777 35.3C792.3 35.7 807.7 36.3 823 37.2C838.3 38 853.7 39 868.8 37.8C884 36.7 899 33.3 914.2 31.7C929.3 30 944.7 30 952.3 30L960 30L960 0L952.3 0C944.7 0 929.3 0 914.2 0C899 0 884 0 868.8 0C853.7 0 838.3 0 823 0C807.7 0 792.3 0 777 0C761.7 0 746.3 0 731.2 0C716 0 701 0 685.8 0C670.7 0 655.3 0 640 0C624.7 0 609.3 0 594.2 0C579 0 564 0 548.8 0C533.7 0 518.3 0 503 0C487.7 0 472.3 0 457 0C441.7 0 426.3 0 411.2 0C396 0 381 0 365.8 0C350.7 0 335.3 0 320 0C304.7 0 289.3 0 274.2 0C259 0 244 0 228.8 0C213.7 0 198.3 0 183 0C167.7 0 152.3 0 137 0C121.7 0 106.3 0 91.2 0C76 0 61 0 45.8 0C30.7 0 15.3 0 7.7 0L0 0Z" fill="#cecece"></path><path d="M0 33L7.7 34C15.3 35 30.7 37 45.8 35.3C61 33.7 76 28.3 91.2 28.7C106.3 29 121.7 35 137 35C152.3 35 167.7 29 183 29.2C198.3 29.3 213.7 35.7 228.8 34.5C244 33.3 259 24.7 274.2 23.3C289.3 22 304.7 28 320 30C335.3 32 350.7 30 365.8 27.8C381 25.7 396 23.3 411.2 23.7C426.3 24 441.7 27 457 30.2C472.3 33.3 487.7 36.7 503 38.2C518.3 39.7 533.7 39.3 548.8 35.7C564 32 579 25 594.2 25.8C609.3 26.7 624.7 35.3 640 34.7C655.3 34 670.7 24 685.8 21.5C701 19 716 24 731.2 26.5C746.3 29 761.7 29 777 29.2C792.3 29.3 807.7 29.7 823 28C838.3 26.3 853.7 22.7 868.8 22.2C884 21.7 899 24.3 914.2 26.7C929.3 29 944.7 31 952.3 32L960 33L960 0L952.3 0C944.7 0 929.3 0 914.2 0C899 0 884 0 868.8 0C853.7 0 838.3 0 823 0C807.7 0 792.3 0 777 0C761.7 0 746.3 0 731.2 0C716 0 701 0 685.8 0C670.7 0 655.3 0 640 0C624.7 0 609.3 0 594.2 0C579 0 564 0 548.8 0C533.7 0 518.3 0 503 0C487.7 0 472.3 0 457 0C441.7 0 426.3 0 411.2 0C396 0 381 0 365.8 0C350.7 0 335.3 0 320 0C304.7 0 289.3 0 274.2 0C259 0 244 0 228.8 0C213.7 0 198.3 0 183 0C167.7 0 152.3 0 137 0C121.7 0 106.3 0 91.2 0C76 0 61 0 45.8 0C30.7 0 15.3 0 7.7 0L0 0Z" fill="#dedede"></path><path d="M0 19L7.7 20.7C15.3 22.3 30.7 25.7 45.8 24.2C61 22.7 76 16.3 91.2 14C106.3 11.7 121.7 13.3 137 14.8C152.3 16.3 167.7 17.7 183 19C198.3 20.3 213.7 21.7 228.8 23C244 24.3 259 25.7 274.2 25.2C289.3 24.7 304.7 22.3 320 19.3C335.3 16.3 350.7 12.7 365.8 13.5C381 14.3 396 19.7 411.2 22C426.3 24.3 441.7 23.7 457 21.7C472.3 19.7 487.7 16.3 503 15.2C518.3 14 533.7 15 548.8 17.5C564 20 579 24 594.2 22.7C609.3 21.3 624.7 14.7 640 12.2C655.3 9.7 670.7 11.3 685.8 12.3C701 13.3 716 13.7 731.2 16.2C746.3 18.7 761.7 23.3 777 24C792.3 24.7 807.7 21.3 823 19C838.3 16.7 853.7 15.3 868.8 17.5C884 19.7 899 25.3 914.2 24.2C929.3 23 944.7 15 952.3 11L960 7L960 0L952.3 0C944.7 0 929.3 0 914.2 0C899 0 884 0 868.8 0C853.7 0 838.3 0 823 0C807.7 0 792.3 0 777 0C761.7 0 746.3 0 731.2 0C716 0 701 0 685.8 0C670.7 0 655.3 0 640 0C624.7 0 609.3 0 594.2 0C579 0 564 0 548.8 0C533.7 0 518.3 0 503 0C487.7 0 472.3 0 457 0C441.7 0 426.3 0 411.2 0C396 0 381 0 365.8 0C350.7 0 335.3 0 320 0C304.7 0 289.3 0 274.2 0C259 0 244 0 228.8 0C213.7 0 198.3 0 183 0C167.7 0 152.3 0 137 0C121.7 0 106.3 0 91.2 0C76 0 61 0 45.8 0C30.7 0 15.3 0 7.7 0L0 0Z" fill="#eeeeee"></path><path d="M0 21L7.7 19.7C15.3 18.3 30.7 15.7 45.8 13.7C61 11.7 76 10.3 91.2 11.7C106.3 13 121.7 17 137 18C152.3 19 167.7 17 183 14C198.3 11 213.7 7 228.8 6.2C244 5.3 259 7.7 274.2 10.2C289.3 12.7 304.7 15.3 320 14.5C335.3 13.7 350.7 9.3 365.8 7C381 4.7 396 4.3 411.2 7C426.3 9.7 441.7 15.3 457 15.3C472.3 15.3 487.7 9.7 503 7.8C518.3 6 533.7 8 548.8 10.8C564 13.7 579 17.3 594.2 17.5C609.3 17.7 624.7 14.3 640 11.8C655.3 9.3 670.7 7.7 685.8 7C701 6.3 716 6.7 731.2 8C746.3 9.3 761.7 11.7 777 11.7C792.3 11.7 807.7 9.3 823 9C838.3 8.7 853.7 10.3 868.8 12.7C884 15 899 18 914.2 17.3C929.3 16.7 944.7 12.3 952.3 10.2L960 8L960 0L952.3 0C944.7 0 929.3 0 914.2 0C899 0 884 0 868.8 0C853.7 0 838.3 0 823 0C807.7 0 792.3 0 777 0C761.7 0 746.3 0 731.2 0C716 0 701 0 685.8 0C670.7 0 655.3 0 640 0C624.7 0 609.3 0 594.2 0C579 0 564 0 548.8 0C533.7 0 518.3 0 503 0C487.7 0 472.3 0 457 0C441.7 0 426.3 0 411.2 0C396 0 381 0 365.8 0C350.7 0 335.3 0 320 0C304.7 0 289.3 0 274.2 0C259 0 244 0 228.8 0C213.7 0 198.3 0 183 0C167.7 0 152.3 0 137 0C121.7 0 106.3 0 91.2 0C76 0 61 0 45.8 0C30.7 0 15.3 0 7.7 0L0 0Z" fill="#ffffff"></path></svg>