<svg id="visual" viewBox="0 0 960 540" width="960" height="540" xmlns="http://www.w3.org/2000/svg" xmlns:xlink="http://www.w3.org/1999/xlink" version="1.1"><rect x="0" y="0" width="960" height="540" fill="#ffffff"></rect><path d="M0 112L7.7 110.2C15.3 108.3 30.7 104.7 45.8 102C61 99.3 76 97.7 91.2 100.3C106.3 103 121.7 110 137 114.2C152.3 118.3 167.7 119.7 183 115.3C198.3 111 213.7 101 228.8 99.2C244 97.3 259 103.7 274.2 108C289.3 112.3 304.7 114.7 320 114.2C335.3 113.7 350.7 110.3 365.8 111C381 111.7 396 116.3 411.2 117.7C426.3 119 441.7 117 457 115.2C472.3 113.3 487.7 111.7 503 109.3C518.3 107 533.7 104 548.8 104C564 104 579 107 594.2 105.5C609.3 104 624.7 98 640 95.8C655.3 93.7 670.7 95.3 685.8 99C701 102.7 716 108.3 731.2 107.7C746.3 107 761.7 100 777 99.3C792.3 98.7 807.7 104.3 823 106C838.3 107.7 853.7 105.3 868.8 103.3C884 101.3 899 99.7 914.2 98.7C929.3 97.7 944.7 97.3 952.3 97.2L960 97L960 0L952.3 0C944.7 0 929.3 0 914.2 0C899 0 884 0 868.8 0C853.7 0 838.3 0 823 0C807.7 0 792.3 0 777 0C761.7 0 746.3 0 731.2 0C716 0 701 0 685.8 0C670.7 0 655.3 0 640 0C624.7 0 609.3 0 594.2 0C579 0 564 0 548.8 0C533.7 0 518.3 0 503 0C487.7 0 472.3 0 457 0C441.7 0 426.3 0 411.2 0C396 0 381 0 365.8 0C350.7 0 335.3 0 320 0C304.7 0 289.3 0 274.2 0C259 0 244 0 228.8 0C213.7 0 198.3 0 183 0C167.7 0 152.3 0 137 0C121.7 0 106.3 0 91.2 0C76 0 61 0 45.8 0C30.7 0 15.3 0 7.7 0L0 0Z" fill="#575757"></path><path d="M0 94L7.7 94.7C15.3 95.3 30.7 96.7 45.8 96C61 95.3 76 92.7 91.2 94.5C106.3 96.3 121.7 102.7 137 105.5C152.3 108.3 167.7 107.7 183 106.2C198.3 104.7 213.7 102.3 228.8 100.3C244 98.3 259 96.7 274.2 94.7C289.3 92.7 304.7 90.3 320 90C335.3 89.7 350.7 91.3 365.8 93.7C381 96 396 99 411.2 102.3C426.3 105.7 441.7 109.3 457 107.8C472.3 106.3 487.7 99.7 503 96.8C518.3 94 533.7 95 548.8 93.5C564 92 579 88 594.2 88.7C609.3 89.3 624.7 94.7 640 95.3C655.3 96 670.7 92 685.8 93.2C701 94.3 716 100.7 731.2 101.8C746.3 103 761.7 99 777 96.7C792.3 94.3 807.7 93.7 823 93.8C838.3 94 853.7 95 868.8 94.7C884 94.3 899 92.7 914.2 94C929.3 95.3 944.7 99.7 952.3 101.8L960 104L960 0L952.3 0C944.7 0 929.3 0 914.2 0C899 0 884 0 868.8 0C853.7 0 838.3 0 823 0C807.7 0 792.3 0 777 0C761.7 0 746.3 0 731.2 0C716 0 701 0 685.8 0C670.7 0 655.3 0 640 0C624.7 0 609.3 0 594.2 0C579 0 564 0 548.8 0C533.7 0 518.3 0 503 0C487.7 0 472.3 0 457 0C441.7 0 426.3 0 411.2 0C396 0 381 0 365.8 0C350.7 0 335.3 0 320 0C304.7 0 289.3 0 274.2 0C259 0 244 0 228.8 0C213.7 0 198.3 0 183 0C167.7 0 152.3 0 137 0C121.7 0 106.3 0 91.2 0C76 0 61 0 45.8 0C30.7 0 15.3 0 7.7 0L0 0Z" fill="#656565"></path><path d="M0 77L7.7 77.2C15.3 77.3 30.7 77.7 45.8 80C61 82.3 76 86.7 91.2 89C106.3 91.3 121.7 91.7 137 91.8C152.3 92 167.7 92 183 93.8C198.3 95.7 213.7 99.3 228.8 100.3C244 101.3 259 99.7 274.2 95.7C289.3 91.7 304.7 85.3 320 82C335.3 78.7 350.7 78.3 365.8 79.8C381 81.3 396 84.7 411.2 84.3C426.3 84 441.7 80 457 82C472.3 84 487.7 92 503 95C518.3 98 533.7 96 548.8 92.5C564 89 579 84 594.2 81.3C609.3 78.7 624.7 78.3 640 81.2C655.3 84 670.7 90 685.8 90.8C701 91.7 716 87.3 731.2 87.3C746.3 87.3 761.7 91.7 777 91.7C792.3 91.7 807.7 87.3 823 85.5C838.3 83.7 853.7 84.3 868.8 87.7C884 91 899 97 914.2 98C929.3 99 944.7 95 952.3 93L960 91L960 0L952.3 0C944.7 0 929.3 0 914.2 0C899 0 884 0 868.8 0C853.7 0 838.3 0 823 0C807.7 0 792.3 0 777 0C761.7 0 746.3 0 731.2 0C716 0 701 0 685.8 0C670.7 0 655.3 0 640 0C624.7 0 609.3 0 594.2 0C579 0 564 0 548.8 0C533.7 0 518.3 0 503 0C487.7 0 472.3 0 457 0C441.7 0 426.3 0 411.2 0C396 0 381 0 365.8 0C350.7 0 335.3 0 320 0C304.7 0 289.3 0 274.2 0C259 0 244 0 228.8 0C213.7 0 198.3 0 183 0C167.7 0 152.3 0 137 0C121.7 0 106.3 0 91.2 0C76 0 61 0 45.8 0C30.7 0 15.3 0 7.7 0L0 0Z" fill="#737373"></path><path d="M0 84L7.7 83.3C15.3 82.7 30.7 81.3 45.8 79.5C61 77.7 76 75.3 91.2 73.7C106.3 72 121.7 71 137 72.5C152.3 74 167.7 78 183 80.3C198.3 82.7 213.7 83.3 228.8 83.8C244 84.3 259 84.7 274.2 83C289.3 81.3 304.7 77.7 320 75.7C335.3 73.7 350.7 73.3 365.8 74.7C381 76 396 79 411.2 82.5C426.3 86 441.7 90 457 90.3C472.3 90.7 487.7 87.3 503 84C518.3 80.7 533.7 77.3 548.8 75.3C564 73.3 579 72.7 594.2 73.8C609.3 75 624.7 78 640 81.3C655.3 84.7 670.7 88.3 685.8 90.5C701 92.7 716 93.3 731.2 90.8C746.3 88.3 761.7 82.7 777 79.3C792.3 76 807.7 75 823 74C838.3 73 853.7 72 868.8 72.8C884 73.7 899 76.3 914.2 76.2C929.3 76 944.7 73 952.3 71.5L960 70L960 0L952.3 0C944.7 0 929.3 0 914.2 0C899 0 884 0 868.8 0C853.7 0 838.3 0 823 0C807.7 0 792.3 0 777 0C761.7 0 746.3 0 731.2 0C716 0 701 0 685.8 0C670.7 0 655.3 0 640 0C624.7 0 609.3 0 594.2 0C579 0 564 0 548.8 0C533.7 0 518.3 0 503 0C487.7 0 472.3 0 457 0C441.7 0 426.3 0 411.2 0C396 0 381 0 365.8 0C350.7 0 335.3 0 320 0C304.7 0 289.3 0 274.2 0C259 0 244 0 228.8 0C213.7 0 198.3 0 183 0C167.7 0 152.3 0 137 0C121.7 0 106.3 0 91.2 0C76 0 61 0 45.8 0C30.7 0 15.3 0 7.7 0L0 0Z" fill="#818181"></path><path d="M0 82L7.7 81.2C15.3 80.3 30.7 78.7 45.8 76C61 73.3 76 69.7 91.2 67.8C106.3 66 121.7 66 137 65.8C152.3 65.7 167.7 65.3 183 68.2C198.3 71 213.7 77 228.8 78.8C244 80.7 259 78.3 274.2 75.7C289.3 73 304.7 70 320 69C335.3 68 350.7 69 365.8 69.2C381 69.3 396 68.7 411.2 69.2C426.3 69.7 441.7 71.3 457 74C472.3 76.7 487.7 80.3 503 81.2C518.3 82 533.7 80 548.8 76.7C564 73.3 579 68.7 594.2 68C609.3 67.3 624.7 70.7 640 71.5C655.3 72.3 670.7 70.7 685.8 68.7C701 66.7 716 64.3 731.2 66.5C746.3 68.7 761.7 75.3 777 77.5C792.3 79.7 807.7 77.3 823 75.5C838.3 73.7 853.7 72.3 868.8 72C884 71.7 899 72.3 914.2 72.3C929.3 72.3 944.7 71.7 952.3 71.3L960 71L960 0L952.3 0C944.7 0 929.3 0 914.2 0C899 0 884 0 868.8 0C853.7 0 838.3 0 823 0C807.7 0 792.3 0 777 0C761.7 0 746.3 0 731.2 0C716 0 701 0 685.8 0C670.7 0 655.3 0 640 0C624.7 0 609.3 0 594.2 0C579 0 564 0 548.8 0C533.7 0 518.3 0 503 0C487.7 0 472.3 0 457 0C441.7 0 426.3 0 411.2 0C396 0 381 0 365.8 0C350.7 0 335.3 0 320 0C304.7 0 289.3 0 274.2 0C259 0 244 0 228.8 0C213.7 0 198.3 0 183 0C167.7 0 152.3 0 137 0C121.7 0 106.3 0 91.2 0C76 0 61 0 45.8 0C30.7 0 15.3 0 7.7 0L0 0Z" fill="#909090"></path><path d="M0 70L7.7 69.3C15.3 68.7 30.7 67.3 45.8 66.3C61 65.3 76 64.7 91.2 65.3C106.3 66 121.7 68 137 69C152.3 70 167.7 70 183 70.3C198.3 70.7 213.7 71.3 228.8 69.8C244 68.3 259 64.7 274.2 63C289.3 61.3 304.7 61.7 320 61.8C335.3 62 350.7 62 365.8 61C381 60 396 58 411.2 57.5C426.3 57 441.7 58 457 60.7C472.3 63.3 487.7 67.7 503 70C518.3 72.3 533.7 72.7 548.8 71C564 69.3 579 65.7 594.2 65.3C609.3 65 624.7 68 640 68.8C655.3 69.7 670.7 68.3 685.8 68.3C701 68.3 716 69.7 731.2 69C746.3 68.3 761.7 65.7 777 63.8C792.3 62 807.7 61 823 62.5C838.3 64 853.7 68 868.8 68.8C884 69.7 899 67.3 914.2 67.2C929.3 67 944.7 69 952.3 70L960 71L960 0L952.3 0C944.7 0 929.3 0 914.2 0C899 0 884 0 868.8 0C853.7 0 838.3 0 823 0C807.7 0 792.3 0 777 0C761.7 0 746.3 0 731.2 0C716 0 701 0 685.8 0C670.7 0 655.3 0 640 0C624.7 0 609.3 0 594.2 0C579 0 564 0 548.8 0C533.7 0 518.3 0 503 0C487.7 0 472.3 0 457 0C441.7 0 426.3 0 411.2 0C396 0 381 0 365.8 0C350.7 0 335.3 0 320 0C304.7 0 289.3 0 274.2 0C259 0 244 0 228.8 0C213.7 0 198.3 0 183 0C167.7 0 152.3 0 137 0C121.7 0 106.3 0 91.2 0C76 0 61 0 45.8 0C30.7 0 15.3 0 7.7 0L0 0Z" fill="#9f9f9f"></path><path d="M0 49L7.7 51.2C15.3 53.3 30.7 57.7 45.8 59.2C61 60.7 76 59.3 91.2 58.2C106.3 57 121.7 56 137 56C152.3 56 167.7 57 183 58.3C198.3 59.7 213.7 61.3 228.8 61.8C244 62.3 259 61.7 274.2 61.2C289.3 60.7 304.7 60.3 320 60.2C335.3 60 350.7 60 365.8 59C381 58 396 56 411.2 54.8C426.3 53.7 441.7 53.3 457 54.3C472.3 55.3 487.7 57.7 503 58.8C518.3 60 533.7 60 548.8 58C564 56 579 52 594.2 50.3C609.3 48.7 624.7 49.3 640 51.3C655.3 53.3 670.7 56.7 685.8 58.3C701 60 716 60 731.2 58.8C746.3 57.7 761.7 55.3 777 53.5C792.3 51.7 807.7 50.3 823 51.8C838.3 53.3 853.7 57.7 868.8 59.8C884 62 899 62 914.2 60C929.3 58 944.7 54 952.3 52L960 50L960 0L952.3 0C944.7 0 929.3 0 914.2 0C899 0 884 0 868.8 0C853.7 0 838.3 0 823 0C807.7 0 792.3 0 777 0C761.7 0 746.3 0 731.2 0C716 0 701 0 685.8 0C670.7 0 655.3 0 640 0C624.7 0 609.3 0 594.2 0C579 0 564 0 548.8 0C533.7 0 518.3 0 503 0C487.7 0 472.3 0 457 0C441.7 0 426.3 0 411.2 0C396 0 381 0 365.8 0C350.7 0 335.3 0 320 0C304.7 0 289.3 0 274.2 0C259 0 244 0 228.8 0C213.7 0 198.3 0 183 0C167.7 0 152.3 0 137 0C121.7 0 106.3 0 91.2 0C76 0 61 0 45.8 0C30.7 0 15.3 0 7.7 0L0 0Z" fill="#afafaf"></path><path d="M0 43L7.7 44.7C15.3 46.3 30.7 49.7 45.8 49.2C61 48.7 76 44.3 91.2 44.3C106.3 44.3 121.7 48.7 137 49.3C152.3 50 167.7 47 183 46.2C198.3 45.3 213.7 46.7 228.8 48.3C244 50 259 52 274.2 51.7C289.3 51.3 304.7 48.7 320 46.5C335.3 44.3 350.7 42.7 365.8 43C381 43.3 396 45.7 411.2 47.2C426.3 48.7 441.7 49.3 457 49.8C472.3 50.3 487.7 50.7 503 50.7C518.3 50.7 533.7 50.3 548.8 50.8C564 51.3 579 52.7 594.2 53C609.3 53.3 624.7 52.7 640 52C655.3 51.3 670.7 50.7 685.8 48.3C701 46 716 42 731.2 41.3C746.3 40.7 761.7 43.3 777 44.8C792.3 46.3 807.7 46.7 823 46C838.3 45.3 853.7 43.7 868.8 43.3C884 43 899 44 914.2 44.5C929.3 45 944.7 45 952.3 45L960 45L960 0L952.3 0C944.7 0 929.3 0 914.2 0C899 0 884 0 868.8 0C853.7 0 838.3 0 823 0C807.7 0 792.3 0 777 0C761.7 0 746.3 0 731.2 0C716 0 701 0 685.8 0C670.7 0 655.3 0 640 0C624.7 0 609.3 0 594.2 0C579 0 564 0 548.8 0C533.7 0 518.3 0 503 0C487.7 0 472.3 0 457 0C441.7 0 426.3 0 411.2 0C396 0 381 0 365.8 0C350.7 0 335.3 0 320 0C304.7 0 289.3 0 274.2 0C259 0 244 0 228.8 0C213.7 0 198.3 0 183 0C167.7 0 152.3 0 137 0C121.7 0 106.3 0 91.2 0C76 0 61 0 45.8 0C30.7 0 15.3 0 7.7 0L0 0Z" fill="#bebebe"></path><path d="M0 42L7.7 41C15.3 40 30.7 38 45.8 37C61 36 76 36 91.2 37.2C106.3 38.3 121.7 40.7 137 39.8C152.3 39 167.7 35 183 34.5C198.3 34 213.7 37 228.8 39C244 41 259 42 274.2 41.3C289.3 40.7 304.7 38.3 320 36.7C335.3 35 350.7 34 365.8 34C381 34 396 35 411.2 35.8C426.3 36.7 441.7 37.3 457 37.8C472.3 38.3 487.7 38.7 503 38.5C518.3 38.3 533.7 37.7 548.8 38.3C564 39 579 41 594.2 41.5C609.3 42 624.7 41 640 41.2C655.3 41.3 670.7 42.7 685.8 43C701 43.3 716 42.7 731.2 42.7C746.3 42.7 761.7 43.3 777 43.3C792.3 43.3 807.7 42.7 823 41.8C838.3 41 853.7 40 868.8 39.7C884 39.3 899 39.7 914.2 40.2C929.3 40.7 944.7 41.3 952.3 41.7L960 42L960 0L952.3 0C944.7 0 929.3 0 914.2 0C899 0 884 0 868.8 0C853.7 0 838.3 0 823 0C807.7 0 792.3 0 777 0C761.7 0 746.3 0 731.2 0C716 0 701 0 685.8 0C670.7 0 655.3 0 640 0C624.7 0 609.3 0 594.2 0C579 0 564 0 548.8 0C533.7 0 518.3 0 503 0C487.7 0 472.3 0 457 0C441.7 0 426.3 0 411.2 0C396 0 381 0 365.8 0C350.7 0 335.3 0 320 0C304.7 0 289.3 0 274.2 0C259 0 244 0 228.8 0C213.7 0 198.3 0 183 0C167.7 0 152.3 0 137 0C121.7 0 106.3 0 91.2 0C76 0 61 0 45.8 0C30.7 0 15.3 0 7.7 0L0 0Z" fill="#cecece"></path><path d="M0 30L7.7 29.8C15.3 29.7 30.7 29.3 45.8 28.8C61 28.3 76 27.7 91.2 27.2C106.3 26.7 121.7 26.3 137 27.5C152.3 28.7 167.7 31.3 183 31.5C198.3 31.7 213.7 29.3 228.8 28.3C244 27.3 259 27.7 274.2 27.2C289.3 26.7 304.7 25.3 320 24.8C335.3 24.3 350.7 24.7 365.8 24.8C381 25 396 25 411.2 25.5C426.3 26 441.7 27 457 28.2C472.3 29.3 487.7 30.7 503 30.7C518.3 30.7 533.7 29.3 548.8 28.5C564 27.7 579 27.3 594.2 27.2C609.3 27 624.7 27 640 27.3C655.3 27.7 670.7 28.3 685.8 27.8C701 27.3 716 25.7 731.2 25.8C746.3 26 761.7 28 777 28.7C792.3 29.3 807.7 28.7 823 28.8C838.3 29 853.7 30 868.8 31C884 32 899 33 914.2 33.5C929.3 34 944.7 34 952.3 34L960 34L960 0L952.3 0C944.7 0 929.3 0 914.2 0C899 0 884 0 868.8 0C853.7 0 838.3 0 823 0C807.7 0 792.3 0 777 0C761.7 0 746.3 0 731.2 0C716 0 701 0 685.8 0C670.7 0 655.3 0 640 0C624.7 0 609.3 0 594.2 0C579 0 564 0 548.8 0C533.7 0 518.3 0 503 0C487.7 0 472.3 0 457 0C441.7 0 426.3 0 411.2 0C396 0 381 0 365.8 0C350.7 0 335.3 0 320 0C304.7 0 289.3 0 274.2 0C259 0 244 0 228.8 0C213.7 0 198.3 0 183 0C167.7 0 152.3 0 137 0C121.7 0 106.3 0 91.2 0C76 0 61 0 45.8 0C30.7 0 15.3 0 7.7 0L0 0Z" fill="#dedede"></path><path d="M0 17L7.7 18.2C15.3 19.3 30.7 21.7 45.8 22.7C61 23.7 76 23.3 91.2 22.5C106.3 21.7 121.7 20.3 137 19.5C152.3 18.7 167.7 18.3 183 18.2C198.3 18 213.7 18 228.8 19C244 20 259 22 274.2 22C289.3 22 304.7 20 320 19.5C335.3 19 350.7 20 365.8 20C381 20 396 19 411.2 19C426.3 19 441.7 20 457 20.5C472.3 21 487.7 21 503 20C518.3 19 533.7 17 548.8 16.3C564 15.7 579 16.3 594.2 16.5C609.3 16.7 624.7 16.3 640 17.2C655.3 18 670.7 20 685.8 20.2C701 20.3 716 18.7 731.2 19C746.3 19.3 761.7 21.7 777 22.7C792.3 23.7 807.7 23.3 823 22.2C838.3 21 853.7 19 868.8 18.7C884 18.3 899 19.7 914.2 20C929.3 20.3 944.7 19.7 952.3 19.3L960 19L960 0L952.3 0C944.7 0 929.3 0 914.2 0C899 0 884 0 868.8 0C853.7 0 838.3 0 823 0C807.7 0 792.3 0 777 0C761.7 0 746.3 0 731.2 0C716 0 701 0 685.8 0C670.7 0 655.3 0 640 0C624.7 0 609.3 0 594.2 0C579 0 564 0 548.8 0C533.7 0 518.3 0 503 0C487.7 0 472.3 0 457 0C441.7 0 426.3 0 411.2 0C396 0 381 0 365.8 0C350.7 0 335.3 0 320 0C304.7 0 289.3 0 274.2 0C259 0 244 0 228.8 0C213.7 0 198.3 0 183 0C167.7 0 152.3 0 137 0C121.7 0 106.3 0 91.2 0C76 0 61 0 45.8 0C30.7 0 15.3 0 7.7 0L0 0Z" fill="#eeeeee"></path><path d="M0 13L7.7 12.7C15.3 12.3 30.7 11.7 45.8 11.7C61 11.7 76 12.3 91.2 12.8C106.3 13.3 121.7 13.7 137 14C152.3 14.3 167.7 14.7 183 13.8C198.3 13 213.7 11 228.8 10.2C244 9.3 259 9.7 274.2 9.5C289.3 9.3 304.7 8.7 320 8.8C335.3 9 350.7 10 365.8 10.3C381 10.7 396 10.3 411.2 10.7C426.3 11 441.7 12 457 12.3C472.3 12.7 487.7 12.3 503 12.2C518.3 12 533.7 12 548.8 11.5C564 11 579 10 594.2 10C609.3 10 624.7 11 640 11.8C655.3 12.7 670.7 13.3 685.8 12.8C701 12.3 716 10.7 731.2 10.3C746.3 10 761.7 11 777 11.2C792.3 11.3 807.7 10.7 823 11C838.3 11.3 853.7 12.7 868.8 13.5C884 14.3 899 14.7 914.2 14.2C929.3 13.7 944.7 12.3 952.3 11.7L960 11L960 0L952.3 0C944.7 0 929.3 0 914.2 0C899 0 884 0 868.8 0C853.7 0 838.3 0 823 0C807.7 0 792.3 0 777 0C761.7 0 746.3 0 731.2 0C716 0 701 0 685.8 0C670.7 0 655.3 0 640 0C624.7 0 609.3 0 594.2 0C579 0 564 0 548.8 0C533.7 0 518.3 0 503 0C487.7 0 472.3 0 457 0C441.7 0 426.3 0 411.2 0C396 0 381 0 365.8 0C350.7 0 335.3 0 320 0C304.7 0 289.3 0 274.2 0C259 0 244 0 228.8 0C213.7 0 198.3 0 183 0C167.7 0 152.3 0 137 0C121.7 0 106.3 0 91.2 0C76 0 61 0 45.8 0C30.7 0 15.3 0 7.7 0L0 0Z" fill="#ffffff"></path></svg>