<svg id="eWVNB2w4tuI1" xmlns="http://www.w3.org/2000/svg" xmlns:xlink="http://www.w3.org/1999/xlink" viewBox="0 0 960 540" shape-rendering="geometricPrecision" text-rendering="geometricPrecision" style="background-color:transparent"><g><path d="M0,112l7.7-1.8c7.6-1.9,23-5.5,38.1-8.2C61,99.3,76,97.7,91.2,100.3c15.1,2.7,30.5,9.7,45.8,13.9c15.3,4.1,30.7,5.5,46,1.1c15.3-4.3,30.7-14.3,45.8-16.1c15.2-1.9,30.2,4.5,45.4,8.8c15.1,4.3,30.5,6.7,45.8,6.2s30.7-3.9,45.8-3.2c15.2.7,30.2,5.3,45.4,6.7c15.1,1.3,30.5-.7,45.8-2.5c15.3-1.9,30.7-3.5,46-5.9c15.3-2.3,30.7-5.3,45.8-5.3c15.2,0,30.2,3,45.4,1.5c15.1-1.5,30.5-7.5,45.8-9.7c15.3-2.1,30.7-.5,45.8,3.2c15.2,3.7,30.2,9.3,45.4,8.7c15.1-.7,30.5-7.7,45.8-8.4c15.3-.6,30.7,5,46,6.7s30.7-.7,45.8-2.7c15.2-2,30.2-3.6,45.4-4.6c15.1-1,30.5-1.4,38.1-1.5L960,97v-97h-7.7c-7.6,0-23,0-38.1,0C899,0,884,0,868.8,0C853.7,0,838.3,0,823,0s-30.7,0-46,0-30.7,0-45.8,0C716,0,701,0,685.8,0C670.7,0,655.3,0,640,0s-30.7,0-45.8,0C579,0,564,0,548.8,0C533.7,0,518.3,0,503,0s-30.7,0-46,0-30.7,0-45.8,0C396,0,381,0,365.8,0C350.7,0,335.3,0,320,0s-30.7,0-45.8,0C259,0,244,0,228.8,0C213.7,0,198.3,0,183,0s-30.7,0-46,0-30.7,0-45.8,0C76,0,61,0,45.8,0C30.7,0,15.3,0,7.7,0L0,0Z" fill="#575757"/><path d="M0,94l7.7.7c7.6.6,23,2,38.1,1.3C61,95.3,76,92.7,91.2,94.5c15.1,1.8,30.5,8.2,45.8,11s30.7,2.2,46,.7s30.7-3.9,45.8-5.9c15.2-2,30.2-3.6,45.4-5.6c15.1-2,30.5-4.4,45.8-4.7s30.7,1.3,45.8,3.7C381,96,396,99,411.2,102.3c15.1,3.4,30.5,7,45.8,5.5s30.7-8.1,46-11c15.3-2.8,30.7-1.8,45.8-3.3C564,92,579,88,594.2,88.7c15.1.6,30.5,6,45.8,6.6c15.3.7,30.7-3.3,45.8-2.1c15.2,1.1,30.2,7.5,45.4,8.6c15.1,1.2,30.5-2.8,45.8-5.1c15.3-2.4,30.7-3,46-2.9c15.3.2,30.7,1.2,45.8.9c15.2-.4,30.2-2,45.4-.7c15.1,1.3,30.5,5.7,38.1,7.8L960,104v-104h-7.7c-7.6,0-23,0-38.1,0C899,0,884,0,868.8,0C853.7,0,838.3,0,823,0s-30.7,0-46,0-30.7,0-45.8,0C716,0,701,0,685.8,0C670.7,0,655.3,0,640,0s-30.7,0-45.8,0C579,0,564,0,548.8,0C533.7,0,518.3,0,503,0s-30.7,0-46,0-30.7,0-45.8,0C396,0,381,0,365.8,0C350.7,0,335.3,0,320,0s-30.7,0-45.8,0C259,0,244,0,228.8,0C213.7,0,198.3,0,183,0s-30.7,0-46,0-30.7,0-45.8,0C76,0,61,0,45.8,0C30.7,0,15.3,0,7.7,0L0,0Z" fill="#656565"/><path d="M0,77l7.7.2c7.6.1,23,.5,38.1,2.8C61,82.3,76,86.7,91.2,89c15.1,2.3,30.5,2.7,45.8,2.8c15.3.2,30.7.2,46,2c15.3,1.9,30.7,5.5,45.8,6.5c15.2,1,30.2-.6,45.4-4.6c15.1-4,30.5-10.4,45.8-13.7s30.7-3.7,45.8-2.2c15.2,1.5,30.2,4.9,45.4,4.5C426.3,84,441.7,80,457,82s30.7,10,46,13s30.7,1,45.8-2.5C564,89,579,84,594.2,81.3c15.1-2.6,30.5-3,45.8-.1c15.3,2.8,30.7,8.8,45.8,9.6c15.2.9,30.2-3.5,45.4-3.5c15.1,0,30.5,4.4,45.8,4.4s30.7-4.4,46-6.2s30.7-1.2,45.8,2.2C884,91,899,97,914.2,98c15.1,1,30.5-3,38.1-5l7.7-2v-91h-7.7c-7.6,0-23,0-38.1,0C899,0,884,0,868.8,0C853.7,0,838.3,0,823,0s-30.7,0-46,0-30.7,0-45.8,0C716,0,701,0,685.8,0C670.7,0,655.3,0,640,0s-30.7,0-45.8,0C579,0,564,0,548.8,0C533.7,0,518.3,0,503,0s-30.7,0-46,0-30.7,0-45.8,0C396,0,381,0,365.8,0C350.7,0,335.3,0,320,0s-30.7,0-45.8,0C259,0,244,0,228.8,0C213.7,0,198.3,0,183,0s-30.7,0-46,0-30.7,0-45.8,0C76,0,61,0,45.8,0C30.7,0,15.3,0,7.7,0L0,0Z" fill="#737373"/><path d="M0,84l7.7-.7c7.6-.6,23-2,38.1-3.8C61,77.7,76,75.3,91.2,73.7C106.3,72,121.7,71,137,72.5s30.7,5.5,46,7.8c15.3,2.4,30.7,3,45.8,3.5c15.2.5,30.2.9,45.4-.8c15.1-1.7,30.5-5.3,45.8-7.3s30.7-2.4,45.8-1C381,76,396,79,411.2,82.5C426.3,86,441.7,90,457,90.3c15.3.4,30.7-3,46-6.3s30.7-6.7,45.8-8.7c15.2-2,30.2-2.6,45.4-1.5C609.3,75,624.7,78,640,81.3c15.3,3.4,30.7,7,45.8,9.2c15.2,2.2,30.2,2.8,45.4.3c15.1-2.5,30.5-8.1,45.8-11.5C792.3,76,807.7,75,823,74s30.7-2,45.8-1.2c15.2.9,30.2,3.5,45.4,3.4c15.1-.2,30.5-3.2,38.1-4.7L960,70v-70h-7.7c-7.6,0-23,0-38.1,0C899,0,884,0,868.8,0C853.7,0,838.3,0,823,0s-30.7,0-46,0-30.7,0-45.8,0C716,0,701,0,685.8,0C670.7,0,655.3,0,640,0s-30.7,0-45.8,0C579,0,564,0,548.8,0C533.7,0,518.3,0,503,0s-30.7,0-46,0-30.7,0-45.8,0C396,0,381,0,365.8,0C350.7,0,335.3,0,320,0s-30.7,0-45.8,0C259,0,244,0,228.8,0C213.7,0,198.3,0,183,0s-30.7,0-46,0-30.7,0-45.8,0C76,0,61,0,45.8,0C30.7,0,15.3,0,7.7,0L0,0Z" fill="#818181"/><path d="M0,82l7.7-.8c7.6-.9,23-2.5,38.1-5.2C61,73.3,76,69.7,91.2,67.8c15.1-1.8,30.5-1.8,45.8-2c15.3-.1,30.7-.5,46,2.4c15.3,2.8,30.7,8.8,45.8,10.6c15.2,1.9,30.2-.5,45.4-3.1C289.3,73,304.7,70,320,69s30.7,0,45.8.2c15.2.1,30.2-.5,45.4,0c15.1.5,30.5,2.1,45.8,4.8s30.7,6.3,46,7.2c15.3.8,30.7-1.2,45.8-4.5c15.2-3.4,30.2-8,45.4-8.7c15.1-.7,30.5,2.7,45.8,3.5s30.7-.8,45.8-2.8c15.2-2,30.2-4.4,45.4-2.2c15.1,2.2,30.5,8.8,45.8,11s30.7-.2,46-2s30.7-3.2,45.8-3.5c15.2-.3,30.2.3,45.4.3c15.1,0,30.5-.6,38.1-1L960,71v-71h-7.7c-7.6,0-23,0-38.1,0C899,0,884,0,868.8,0C853.7,0,838.3,0,823,0s-30.7,0-46,0-30.7,0-45.8,0C716,0,701,0,685.8,0C670.7,0,655.3,0,640,0s-30.7,0-45.8,0C579,0,564,0,548.8,0C533.7,0,518.3,0,503,0s-30.7,0-46,0-30.7,0-45.8,0C396,0,381,0,365.8,0C350.7,0,335.3,0,320,0s-30.7,0-45.8,0C259,0,244,0,228.8,0C213.7,0,198.3,0,183,0s-30.7,0-46,0-30.7,0-45.8,0C76,0,61,0,45.8,0C30.7,0,15.3,0,7.7,0L0,0Z" fill="#909090"/><path d="M0,70l7.7-.7c7.6-.6,23-2,38.1-3c15.2-1,30.2-1.6,45.4-1C106.3,66,121.7,68,137,69s30.7,1,46,1.3c15.3.4,30.7,1,45.8-.5C244,68.3,259,64.7,274.2,63c15.1-1.7,30.5-1.3,45.8-1.2c15.3.2,30.7.2,45.8-.8c15.2-1,30.2-3,45.4-3.5c15.1-.5,30.5.5,45.8,3.2c15.3,2.6,30.7,7,46,9.3s30.7,2.7,45.8,1c15.2-1.7,30.2-5.3,45.4-5.7c15.1-.3,30.5,2.7,45.8,3.5c15.3.9,30.7-.5,45.8-.5c15.2,0,30.2,1.4,45.4.7c15.1-.7,30.5-3.3,45.8-5.2c15.3-1.8,30.7-2.8,46-1.3s30.7,5.5,45.8,6.3c15.2.9,30.2-1.5,45.4-1.6c15.1-.2,30.5,1.8,38.1,2.8l7.7,1v-71h-7.7c-7.6,0-23,0-38.1,0C899,0,884,0,868.8,0C853.7,0,838.3,0,823,0s-30.7,0-46,0-30.7,0-45.8,0C716,0,701,0,685.8,0C670.7,0,655.3,0,640,0s-30.7,0-45.8,0C579,0,564,0,548.8,0C533.7,0,518.3,0,503,0s-30.7,0-46,0-30.7,0-45.8,0C396,0,381,0,365.8,0C350.7,0,335.3,0,320,0s-30.7,0-45.8,0C259,0,244,0,228.8,0C213.7,0,198.3,0,183,0s-30.7,0-46,0-30.7,0-45.8,0C76,0,61,0,45.8,0C30.7,0,15.3,0,7.7,0L0,0Z" fill="#9f9f9f"/><path d="M0,49l7.7,2.2c7.6,2.1,23,6.5,38.1,8c15.2,1.5,30.2.1,45.4-1C106.3,57,121.7,56,137,56s30.7,1,46,2.3c15.3,1.4,30.7,3,45.8,3.5c15.2.5,30.2-.1,45.4-.6c15.1-.5,30.5-.9,45.8-1c15.3-.2,30.7-.2,45.8-1.2c15.2-1,30.2-3,45.4-4.2c15.1-1.1,30.5-1.5,45.8-.5s30.7,3.4,46,4.5c15.3,1.2,30.7,1.2,45.8-.8c15.2-2,30.2-6,45.4-7.7c15.1-1.6,30.5-1,45.8,1s30.7,5.4,45.8,7C701,60,716,60,731.2,58.8c15.1-1.1,30.5-3.5,45.8-5.3s30.7-3.2,46-1.7s30.7,5.9,45.8,8C884,62,899,62,914.2,60c15.1-2,30.5-6,38.1-8l7.7-2v-50h-7.7c-7.6,0-23,0-38.1,0C899,0,884,0,868.8,0C853.7,0,838.3,0,823,0s-30.7,0-46,0-30.7,0-45.8,0C716,0,701,0,685.8,0C670.7,0,655.3,0,640,0s-30.7,0-45.8,0C579,0,564,0,548.8,0C533.7,0,518.3,0,503,0s-30.7,0-46,0-30.7,0-45.8,0C396,0,381,0,365.8,0C350.7,0,335.3,0,320,0s-30.7,0-45.8,0C259,0,244,0,228.8,0C213.7,0,198.3,0,183,0s-30.7,0-46,0-30.7,0-45.8,0C76,0,61,0,45.8,0C30.7,0,15.3,0,7.7,0L0,0Z" fill="#afafaf"/><path d="M0,43l7.7,1.7c7.6,1.6,23,5,38.1,4.5C61,48.7,76,44.3,91.2,44.3c15.1,0,30.5,4.4,45.8,5c15.3.7,30.7-2.3,46-3.1c15.3-.9,30.7.5,45.8,2.1C244,50,259,52,274.2,51.7c15.1-.4,30.5-3,45.8-5.2s30.7-3.8,45.8-3.5c15.2.3,30.2,2.7,45.4,4.2c15.1,1.5,30.5,2.1,45.8,2.6s30.7.9,46,.9s30.7-.4,45.8.1c15.2.5,30.2,1.9,45.4,2.2c15.1.3,30.5-.3,45.8-1s30.7-1.3,45.8-3.7C701,46,716,42,731.2,41.3c15.1-.6,30.5,2,45.8,3.5s30.7,1.9,46,1.2s30.7-2.3,45.8-2.7c15.2-.3,30.2.7,45.4,1.2c15.1.5,30.5.5,38.1.5h7.7v-45h-7.7c-7.6,0-23,0-38.1,0C899,0,884,0,868.8,0C853.7,0,838.3,0,823,0s-30.7,0-46,0-30.7,0-45.8,0C716,0,701,0,685.8,0C670.7,0,655.3,0,640,0s-30.7,0-45.8,0C579,0,564,0,548.8,0C533.7,0,518.3,0,503,0s-30.7,0-46,0-30.7,0-45.8,0C396,0,381,0,365.8,0C350.7,0,335.3,0,320,0s-30.7,0-45.8,0C259,0,244,0,228.8,0C213.7,0,198.3,0,183,0s-30.7,0-46,0-30.7,0-45.8,0C76,0,61,0,45.8,0C30.7,0,15.3,0,7.7,0L0,0Z" fill="#bebebe"/><path d="M0,42l7.7-1c7.6-1,23-3,38.1-4c15.2-1,30.2-1,45.4.2c15.1,1.1,30.5,3.5,45.8,2.6c15.3-.8,30.7-4.8,46-5.3s30.7,2.5,45.8,4.5c15.2,2,30.2,3,45.4,2.3c15.1-.6,30.5-3,45.8-4.6C335.3,35,350.7,34,365.8,34c15.2,0,30.2,1,45.4,1.8c15.1.9,30.5,1.5,45.8,2s30.7.9,46,.7s30.7-.8,45.8-.2C564,39,579,41,594.2,41.5c15.1.5,30.5-.5,45.8-.3c15.3.1,30.7,1.5,45.8,1.8c15.2.3,30.2-.3,45.4-.3c15.1,0,30.5.6,45.8.6s30.7-.6,46-1.5c15.3-.8,30.7-1.8,45.8-2.1c15.2-.4,30.2,0,45.4.5c15.1.5,30.5,1.1,38.1,1.5l7.7.3v-42h-7.7c-7.6,0-23,0-38.1,0C899,0,884,0,868.8,0C853.7,0,838.3,0,823,0s-30.7,0-46,0-30.7,0-45.8,0C716,0,701,0,685.8,0C670.7,0,655.3,0,640,0s-30.7,0-45.8,0C579,0,564,0,548.8,0C533.7,0,518.3,0,503,0s-30.7,0-46,0-30.7,0-45.8,0C396,0,381,0,365.8,0C350.7,0,335.3,0,320,0s-30.7,0-45.8,0C259,0,244,0,228.8,0C213.7,0,198.3,0,183,0s-30.7,0-46,0-30.7,0-45.8,0C76,0,61,0,45.8,0C30.7,0,15.3,0,7.7,0L0,0Z" fill="#cecece"/><path d="M0,30l7.7-.2c7.6-.1,23-.5,38.1-1C61,28.3,76,27.7,91.2,27.2c15.1-.5,30.5-.9,45.8.3s30.7,3.8,46,4s30.7-2.2,45.8-3.2c15.2-1,30.2-.6,45.4-1.1c15.1-.5,30.5-1.9,45.8-2.4s30.7-.1,45.8,0c15.2.2,30.2.2,45.4.7c15.1.5,30.5,1.5,45.8,2.7c15.3,1.1,30.7,2.5,46,2.5s30.7-1.4,45.8-2.2c15.2-.8,30.2-1.2,45.4-1.3c15.1-.2,30.5-.2,45.8.1c15.3.4,30.7,1,45.8.5c15.2-.5,30.2-2.1,45.4-2c15.1.2,30.5,2.2,45.8,2.9c15.3.6,30.7,0,46,.1c15.3.2,30.7,1.2,45.8,2.2c15.2,1,30.2,2,45.4,2.5c15.1.5,30.5.5,38.1.5h7.7v-34h-7.7c-7.6,0-23,0-38.1,0C899,0,884,0,868.8,0C853.7,0,838.3,0,823,0s-30.7,0-46,0-30.7,0-45.8,0C716,0,701,0,685.8,0C670.7,0,655.3,0,640,0s-30.7,0-45.8,0C579,0,564,0,548.8,0C533.7,0,518.3,0,503,0s-30.7,0-46,0-30.7,0-45.8,0C396,0,381,0,365.8,0C350.7,0,335.3,0,320,0s-30.7,0-45.8,0C259,0,244,0,228.8,0C213.7,0,198.3,0,183,0s-30.7,0-46,0-30.7,0-45.8,0C76,0,61,0,45.8,0C30.7,0,15.3,0,7.7,0L0,0Z" fill="#dedede"/><path d="M0,17l7.7,1.2c7.6,1.1,23,3.5,38.1,4.5c15.2,1,30.2.6,45.4-.2c15.1-.8,30.5-2.2,45.8-3s30.7-1.2,46-1.3c15.3-.2,30.7-.2,45.8.8c15.2,1,30.2,3,45.4,3c15.1,0,30.5-2,45.8-2.5s30.7.5,45.8.5c15.2,0,30.2-1,45.4-1c15.1,0,30.5,1,45.8,1.5s30.7.5,46-.5s30.7-3,45.8-3.7c15.2-.6,30.2,0,45.4.2c15.1.2,30.5-.2,45.8.7c15.3.8,30.7,2.8,45.8,3c15.2.1,30.2-1.5,45.4-1.2c15.1.3,30.5,2.7,45.8,3.7s30.7.6,46-.5c15.3-1.2,30.7-3.2,45.8-3.5c15.2-.4,30.2,1,45.4,1.3c15.1.3,30.5-.3,38.1-.7L960,19v-19h-7.7c-7.6,0-23,0-38.1,0C899,0,884,0,868.8,0C853.7,0,838.3,0,823,0s-30.7,0-46,0-30.7,0-45.8,0C716,0,701,0,685.8,0C670.7,0,655.3,0,640,0s-30.7,0-45.8,0C579,0,564,0,548.8,0C533.7,0,518.3,0,503,0s-30.7,0-46,0-30.7,0-45.8,0C396,0,381,0,365.8,0C350.7,0,335.3,0,320,0s-30.7,0-45.8,0C259,0,244,0,228.8,0C213.7,0,198.3,0,183,0s-30.7,0-46,0-30.7,0-45.8,0C76,0,61,0,45.8,0C30.7,0,15.3,0,7.7,0L0,0Z" fill="#eee"/><path d="M0,13l7.7-.3c7.6-.4,23-1,38.1-1c15.2,0,30.2.6,45.4,1.1c15.1.5,30.5.9,45.8,1.2s30.7.7,46-.2c15.3-.8,30.7-2.8,45.8-3.6c15.2-.9,30.2-.5,45.4-.7c15.1-.2,30.5-.8,45.8-.7c15.3.2,30.7,1.2,45.8,1.5c15.2.4,30.2,0,45.4.4c15.1.3,30.5,1.3,45.8,1.6c15.3.4,30.7,0,46-.1c15.3-.2,30.7-.2,45.8-.7C564,11,579,10,594.2,10c15.1,0,30.5,1,45.8,1.8c15.3.9,30.7,1.5,45.8,1c15.2-.5,30.2-2.1,45.4-2.5c15.1-.3,30.5.7,45.8.9c15.3.1,30.7-.5,46-.2s30.7,1.7,45.8,2.5c15.2.8,30.2,1.2,45.4.7c15.1-.5,30.5-1.9,38.1-2.5L960,11v-11h-7.7c-7.6,0-23,0-38.1,0C899,0,884,0,868.8,0C853.7,0,838.3,0,823,0s-30.7,0-46,0-30.7,0-45.8,0C716,0,701,0,685.8,0C670.7,0,655.3,0,640,0s-30.7,0-45.8,0C579,0,564,0,548.8,0C533.7,0,518.3,0,503,0s-30.7,0-46,0-30.7,0-45.8,0C396,0,381,0,365.8,0C350.7,0,335.3,0,320,0s-30.7,0-45.8,0C259,0,244,0,228.8,0C213.7,0,198.3,0,183,0s-30.7,0-46,0-30.7,0-45.8,0C76,0,61,0,45.8,0C30.7,0,15.3,0,7.7,0L0,0Z" fill="#fff"/></g></svg>
