<svg id="visual" viewBox="0 0 2048 200" width="2048" height="200" xmlns="http://www.w3.org/2000/svg" xmlns:xlink="http://www.w3.org/1999/xlink" version="1.1"><path d="M0 11L20 13C40 15 80 19 120.2 23C160.3 27 200.7 31 240.8 33C281 35 321 35 361.2 33.3C401.3 31.7 441.7 28.3 481.8 23.7C522 19 562 13 602.2 13.3C642.3 13.7 682.7 20.3 722.8 22.3C763 24.3 803 21.7 843.2 21.3C883.3 21 923.7 23 963.8 21.3C1004 19.7 1044 14.3 1084.2 16.3C1124.3 18.3 1164.7 27.7 1204.8 33.3C1245 39 1285 41 1325.2 37.3C1365.3 33.7 1405.7 24.3 1445.8 20C1486 15.7 1526 16.3 1566.2 20.7C1606.3 25 1646.7 33 1686.8 36.3C1727 39.7 1767 38.3 1807.2 33.3C1847.3 28.3 1887.7 19.7 1927.8 18.7C1968 17.7 2008 24.3 2028 27.7L2048 31L2048 0L2028 0C2008 0 1968 0 1927.8 0C1887.7 0 1847.3 0 1807.2 0C1767 0 1727 0 1686.8 0C1646.7 0 1606.3 0 1566.2 0C1526 0 1486 0 1445.8 0C1405.7 0 1365.3 0 1325.2 0C1285 0 1245 0 1204.8 0C1164.7 0 1124.3 0 1084.2 0C1044 0 1004 0 963.8 0C923.7 0 883.3 0 843.2 0C803 0 763 0 722.8 0C682.7 0 642.3 0 602.2 0C562 0 522 0 481.8 0C441.7 0 401.3 0 361.2 0C321 0 281 0 240.8 0C200.7 0 160.3 0 120.2 0C80 0 40 0 20 0L0 0Z" fill="#ffffff"></path><path d="M0 27L20 28C40 29 80 31 120.2 34C160.3 37 200.7 41 240.8 42.3C281 43.7 321 42.3 361.2 41.7C401.3 41 441.7 41 481.8 37.3C522 33.7 562 26.3 602.2 25.7C642.3 25 682.7 31 722.8 31C763 31 803 25 843.2 25.3C883.3 25.7 923.7 32.3 963.8 30.7C1004 29 1044 19 1084.2 19.3C1124.3 19.7 1164.7 30.3 1204.8 37C1245 43.7 1285 46.3 1325.2 45C1365.3 43.7 1405.7 38.3 1445.8 33C1486 27.7 1526 22.3 1566.2 23.7C1606.3 25 1646.7 33 1686.8 38.7C1727 44.3 1767 47.7 1807.2 43.3C1847.3 39 1887.7 27 1927.8 24.7C1968 22.3 2008 29.7 2028 33.3L2048 37L2048 29L2028 25.7C2008 22.3 1968 15.7 1927.8 16.7C1887.7 17.7 1847.3 26.3 1807.2 31.3C1767 36.3 1727 37.7 1686.8 34.3C1646.7 31 1606.3 23 1566.2 18.7C1526 14.3 1486 13.7 1445.8 18C1405.7 22.3 1365.3 31.7 1325.2 35.3C1285 39 1245 37 1204.8 31.3C1164.7 25.7 1124.3 16.3 1084.2 14.3C1044 12.3 1004 17.7 963.8 19.3C923.7 21 883.3 19 843.2 19.3C803 19.7 763 22.3 722.8 20.3C682.7 18.3 642.3 11.7 602.2 11.3C562 11 522 17 481.8 21.7C441.7 26.3 401.3 29.7 361.2 31.3C321 33 281 33 240.8 31C200.7 29 160.3 25 120.2 21C80 17 40 13 20 11L0 9Z" fill="#ede9ed"></path><path d="M0 57L20 61C40 65 80 73 120.2 75.3C160.3 77.7 200.7 74.3 240.8 71.7C281 69 321 67 361.2 68C401.3 69 441.7 73 481.8 71.7C522 70.3 562 63.7 602.2 62C642.3 60.3 682.7 63.7 722.8 67.7C763 71.7 803 76.3 843.2 83.7C883.3 91 923.7 101 963.8 101.3C1004 101.7 1044 92.3 1084.2 90.3C1124.3 88.3 1164.7 93.7 1204.8 89.3C1245 85 1285 71 1325.2 74.3C1365.3 77.7 1405.7 98.3 1445.8 99.3C1486 100.3 1526 81.7 1566.2 74.7C1606.3 67.7 1646.7 72.3 1686.8 75.3C1727 78.3 1767 79.7 1807.2 78.3C1847.3 77 1887.7 73 1927.8 77C1968 81 2008 93 2028 99L2048 105L2048 35L2028 31.3C2008 27.7 1968 20.3 1927.8 22.7C1887.7 25 1847.3 37 1807.2 41.3C1767 45.7 1727 42.3 1686.8 36.7C1646.7 31 1606.3 23 1566.2 21.7C1526 20.3 1486 25.7 1445.8 31C1405.7 36.3 1365.3 41.7 1325.2 43C1285 44.3 1245 41.7 1204.8 35C1164.7 28.3 1124.3 17.7 1084.2 17.3C1044 17 1004 27 963.8 28.7C923.7 30.3 883.3 23.7 843.2 23.3C803 23 763 29 722.8 29C682.7 29 642.3 23 602.2 23.7C562 24.3 522 31.7 481.8 35.3C441.7 39 401.3 39 361.2 39.7C321 40.3 281 41.7 240.8 40.3C200.7 39 160.3 35 120.2 32C80 29 40 27 20 26L0 25Z" fill="#dbd3dc"></path><path d="M0 83L20 86.3C40 89.7 80 96.3 120.2 97C160.3 97.7 200.7 92.3 240.8 87C281 81.7 321 76.3 361.2 74.7C401.3 73 441.7 75 481.8 77.3C522 79.7 562 82.3 602.2 83.7C642.3 85 682.7 85 722.8 87C763 89 803 93 843.2 97.3C883.3 101.7 923.7 106.3 963.8 108C1004 109.7 1044 108.3 1084.2 106.3C1124.3 104.3 1164.7 101.7 1204.8 96C1245 90.3 1285 81.7 1325.2 89C1365.3 96.3 1405.7 119.7 1445.8 121.7C1486 123.7 1526 104.3 1566.2 97.3C1606.3 90.3 1646.7 95.7 1686.8 95C1727 94.3 1767 87.7 1807.2 84.7C1847.3 81.7 1887.7 82.3 1927.8 90.3C1968 98.3 2008 113.7 2028 121.3L2048 129L2048 103L2028 97C2008 91 1968 79 1927.8 75C1887.7 71 1847.3 75 1807.2 76.3C1767 77.7 1727 76.3 1686.8 73.3C1646.7 70.3 1606.3 65.7 1566.2 72.7C1526 79.7 1486 98.3 1445.8 97.3C1405.7 96.3 1365.3 75.7 1325.2 72.3C1285 69 1245 83 1204.8 87.3C1164.7 91.7 1124.3 86.3 1084.2 88.3C1044 90.3 1004 99.7 963.8 99.3C923.7 99 883.3 89 843.2 81.7C803 74.3 763 69.7 722.8 65.7C682.7 61.7 642.3 58.3 602.2 60C562 61.7 522 68.3 481.8 69.7C441.7 71 401.3 67 361.2 66C321 65 281 67 240.8 69.7C200.7 72.3 160.3 75.7 120.2 73.3C80 71 40 63 20 59L0 55Z" fill="#cabdca"></path><path d="M0 97L20 98.3C40 99.7 80 102.3 120.2 102C160.3 101.7 200.7 98.3 240.8 96.3C281 94.3 321 93.7 361.2 94.3C401.3 95 441.7 97 481.8 98C522 99 562 99 602.2 98.7C642.3 98.3 682.7 97.7 722.8 99C763 100.3 803 103.7 843.2 108C883.3 112.3 923.7 117.7 963.8 118.3C1004 119 1044 115 1084.2 111.7C1124.3 108.3 1164.7 105.7 1204.8 99.3C1245 93 1285 83 1325.2 90.7C1365.3 98.3 1405.7 123.7 1445.8 126C1486 128.3 1526 107.7 1566.2 101.7C1606.3 95.7 1646.7 104.3 1686.8 106.3C1727 108.3 1767 103.7 1807.2 102.3C1847.3 101 1887.7 103 1927.8 111.7C1968 120.3 2008 135.7 2028 143.3L2048 151L2048 127L2028 119.3C2008 111.7 1968 96.3 1927.8 88.3C1887.7 80.3 1847.3 79.7 1807.2 82.7C1767 85.7 1727 92.3 1686.8 93C1646.7 93.7 1606.3 88.3 1566.2 95.3C1526 102.3 1486 121.7 1445.8 119.7C1405.7 117.7 1365.3 94.3 1325.2 87C1285 79.7 1245 88.3 1204.8 94C1164.7 99.7 1124.3 102.3 1084.2 104.3C1044 106.3 1004 107.7 963.8 106C923.7 104.3 883.3 99.7 843.2 95.3C803 91 763 87 722.8 85C682.7 83 642.3 83 602.2 81.7C562 80.3 522 77.7 481.8 75.3C441.7 73 401.3 71 361.2 72.7C321 74.3 281 79.7 240.8 85C200.7 90.3 160.3 95.7 120.2 95C80 94.3 40 87.7 20 84.3L0 81Z" fill="#b9a8b9"></path><path d="M0 113L20 117.3C40 121.7 80 130.3 120.2 131C160.3 131.7 200.7 124.3 240.8 123C281 121.7 321 126.3 361.2 123.7C401.3 121 441.7 111 481.8 110.3C522 109.7 562 118.3 602.2 121C642.3 123.7 682.7 120.3 722.8 119C763 117.7 803 118.3 843.2 120.3C883.3 122.3 923.7 125.7 963.8 128.3C1004 131 1044 133 1084.2 129.3C1124.3 125.7 1164.7 116.3 1204.8 112.3C1245 108.3 1285 109.7 1325.2 122C1365.3 134.3 1405.7 157.7 1445.8 158.7C1486 159.7 1526 138.3 1566.2 130C1606.3 121.7 1646.7 126.3 1686.8 127.3C1727 128.3 1767 125.7 1807.2 127.7C1847.3 129.7 1887.7 136.3 1927.8 142.7C1968 149 2008 155 2028 158L2048 161L2048 149L2028 141.3C2008 133.7 1968 118.3 1927.8 109.7C1887.7 101 1847.3 99 1807.2 100.3C1767 101.7 1727 106.3 1686.8 104.3C1646.7 102.3 1606.3 93.7 1566.2 99.7C1526 105.7 1486 126.3 1445.8 124C1405.7 121.7 1365.3 96.3 1325.2 88.7C1285 81 1245 91 1204.8 97.3C1164.7 103.7 1124.3 106.3 1084.2 109.7C1044 113 1004 117 963.8 116.3C923.7 115.7 883.3 110.3 843.2 106C803 101.7 763 98.3 722.8 97C682.7 95.7 642.3 96.3 602.2 96.7C562 97 522 97 481.8 96C441.7 95 401.3 93 361.2 92.3C321 91.7 281 92.3 240.8 94.3C200.7 96.3 160.3 99.7 120.2 100C80 100.3 40 97.7 20 96.3L0 95Z" fill="#a793a8"></path><path d="M0 171L20 168.3C40 165.7 80 160.3 120.2 156.7C160.3 153 200.7 151 240.8 151.3C281 151.7 321 154.3 361.2 159.7C401.3 165 441.7 173 481.8 174C522 175 562 169 602.2 164.7C642.3 160.3 682.7 157.7 722.8 153C763 148.3 803 141.7 843.2 139.3C883.3 137 923.7 139 963.8 141.7C1004 144.3 1044 147.7 1084.2 146.3C1124.3 145 1164.7 139 1204.8 141.7C1245 144.3 1285 155.7 1325.2 165.7C1365.3 175.7 1405.7 184.3 1445.8 183C1486 181.7 1526 170.3 1566.2 168C1606.3 165.7 1646.7 172.3 1686.8 171.7C1727 171 1767 163 1807.2 157.3C1847.3 151.7 1887.7 148.3 1927.8 150.3C1968 152.3 2008 159.7 2028 163.3L2048 167L2048 159L2028 156C2008 153 1968 147 1927.8 140.7C1887.7 134.3 1847.3 127.7 1807.2 125.7C1767 123.7 1727 126.3 1686.8 125.3C1646.7 124.3 1606.3 119.7 1566.2 128C1526 136.3 1486 157.7 1445.8 156.7C1405.7 155.7 1365.3 132.3 1325.2 120C1285 107.7 1245 106.3 1204.8 110.3C1164.7 114.3 1124.3 123.7 1084.2 127.3C1044 131 1004 129 963.8 126.3C923.7 123.7 883.3 120.3 843.2 118.3C803 116.3 763 115.7 722.8 117C682.7 118.3 642.3 121.7 602.2 119C562 116.3 522 107.7 481.8 108.3C441.7 109 401.3 119 361.2 121.7C321 124.3 281 119.7 240.8 121C200.7 122.3 160.3 129.7 120.2 129C80 128.3 40 119.7 20 115.3L0 111Z" fill="#977f98"></path><path d="M0 173L20 170C40 167 80 161 120.2 159.7C160.3 158.3 200.7 161.7 240.8 164.7C281 167.7 321 170.3 361.2 173.3C401.3 176.3 441.7 179.7 481.8 178.3C522 177 562 171 602.2 166.3C642.3 161.7 682.7 158.3 722.8 155.3C763 152.3 803 149.7 843.2 149.7C883.3 149.7 923.7 152.3 963.8 154.7C1004 157 1044 159 1084.2 157.7C1124.3 156.3 1164.7 151.7 1204.8 153C1245 154.3 1285 161.7 1325.2 170C1365.3 178.3 1405.7 187.7 1445.8 186.7C1486 185.7 1526 174.3 1566.2 172.7C1606.3 171 1646.7 179 1686.8 178.7C1727 178.3 1767 169.7 1807.2 163.7C1847.3 157.7 1887.7 154.3 1927.8 157.3C1968 160.3 2008 169.7 2028 174.3L2048 179L2048 165L2028 161.3C2008 157.7 1968 150.3 1927.8 148.3C1887.7 146.3 1847.3 149.7 1807.2 155.3C1767 161 1727 169 1686.8 169.7C1646.7 170.3 1606.3 163.7 1566.2 166C1526 168.3 1486 179.7 1445.8 181C1405.7 182.3 1365.3 173.7 1325.2 163.7C1285 153.7 1245 142.3 1204.8 139.7C1164.7 137 1124.3 143 1084.2 144.3C1044 145.7 1004 142.3 963.8 139.7C923.7 137 883.3 135 843.2 137.3C803 139.7 763 146.3 722.8 151C682.7 155.7 642.3 158.3 602.2 162.7C562 167 522 173 481.8 172C441.7 171 401.3 163 361.2 157.7C321 152.3 281 149.7 240.8 149.3C200.7 149 160.3 151 120.2 154.7C80 158.3 40 163.7 20 166.3L0 169Z" fill="#866b88"></path><path d="M0 181L20 179C40 177 80 173 120.2 170.7C160.3 168.3 200.7 167.7 240.8 169.3C281 171 321 175 361.2 177.7C401.3 180.3 441.7 181.7 481.8 179.7C522 177.7 562 172.3 602.2 170.3C642.3 168.3 682.7 169.7 722.8 168.3C763 167 803 163 843.2 162.7C883.3 162.3 923.7 165.7 963.8 166C1004 166.3 1044 163.7 1084.2 163.3C1124.3 163 1164.7 165 1204.8 169C1245 173 1285 179 1325.2 184C1365.3 189 1405.7 193 1445.8 189.3C1486 185.7 1526 174.3 1566.2 173.7C1606.3 173 1646.7 183 1686.8 184.3C1727 185.7 1767 178.3 1807.2 175C1847.3 171.7 1887.7 172.3 1927.8 176.7C1968 181 2008 189 2028 193L2048 197L2048 177L2028 172.3C2008 167.7 1968 158.3 1927.8 155.3C1887.7 152.3 1847.3 155.7 1807.2 161.7C1767 167.7 1727 176.3 1686.8 176.7C1646.7 177 1606.3 169 1566.2 170.7C1526 172.3 1486 183.7 1445.8 184.7C1405.7 185.7 1365.3 176.3 1325.2 168C1285 159.7 1245 152.3 1204.8 151C1164.7 149.7 1124.3 154.3 1084.2 155.7C1044 157 1004 155 963.8 152.7C923.7 150.3 883.3 147.7 843.2 147.7C803 147.7 763 150.3 722.8 153.3C682.7 156.3 642.3 159.7 602.2 164.3C562 169 522 175 481.8 176.3C441.7 177.7 401.3 174.3 361.2 171.3C321 168.3 281 165.7 240.8 162.7C200.7 159.7 160.3 156.3 120.2 157.7C80 159 40 165 20 168L0 171Z" fill="#755878"></path><path d="M0 189L20 187.7C40 186.3 80 183.7 120.2 181C160.3 178.3 200.7 175.7 240.8 175.3C281 175 321 177 361.2 179.3C401.3 181.7 441.7 184.3 481.8 183.7C522 183 562 179 602.2 178.7C642.3 178.3 682.7 181.7 722.8 181.3C763 181 803 177 843.2 175.3C883.3 173.7 923.7 174.3 963.8 172.7C1004 171 1044 167 1084.2 166.3C1124.3 165.7 1164.7 168.3 1204.8 173.3C1245 178.3 1285 185.7 1325.2 190C1365.3 194.3 1405.7 195.7 1445.8 192.3C1486 189 1526 181 1566.2 181C1606.3 181 1646.7 189 1686.8 190.3C1727 191.7 1767 186.3 1807.2 184C1847.3 181.7 1887.7 182.3 1927.8 185.3C1968 188.3 2008 193.7 2028 196.3L2048 199L2048 195L2028 191C2008 187 1968 179 1927.8 174.7C1887.7 170.3 1847.3 169.7 1807.2 173C1767 176.3 1727 183.7 1686.8 182.3C1646.7 181 1606.3 171 1566.2 171.7C1526 172.3 1486 183.7 1445.8 187.3C1405.7 191 1365.3 187 1325.2 182C1285 177 1245 171 1204.8 167C1164.7 163 1124.3 161 1084.2 161.3C1044 161.7 1004 164.3 963.8 164C923.7 163.7 883.3 160.3 843.2 160.7C803 161 763 165 722.8 166.3C682.7 167.7 642.3 166.3 602.2 168.3C562 170.3 522 175.7 481.8 177.7C441.7 179.7 401.3 178.3 361.2 175.7C321 173 281 169 240.8 167.3C200.7 165.7 160.3 166.3 120.2 168.7C80 171 40 175 20 177L0 179Z" fill="#654568"></path><path d="M0 189L20 188.7C40 188.3 80 187.7 120.2 186.3C160.3 185 200.7 183 240.8 182.7C281 182.3 321 183.7 361.2 186.3C401.3 189 441.7 193 481.8 192.3C522 191.7 562 186.3 602.2 185.3C642.3 184.3 682.7 187.7 722.8 188C763 188.3 803 185.7 843.2 185C883.3 184.3 923.7 185.7 963.8 184.3C1004 183 1044 179 1084.2 177C1124.3 175 1164.7 175 1204.8 178.3C1245 181.7 1285 188.3 1325.2 192C1365.3 195.7 1405.7 196.3 1445.8 194.3C1486 192.3 1526 187.7 1566.2 188.3C1606.3 189 1646.7 195 1686.8 196.3C1727 197.7 1767 194.3 1807.2 191.7C1847.3 189 1887.7 187 1927.8 188.7C1968 190.3 2008 195.7 2028 198.3L2048 201L2048 197L2028 194.3C2008 191.7 1968 186.3 1927.8 183.3C1887.7 180.3 1847.3 179.7 1807.2 182C1767 184.3 1727 189.7 1686.8 188.3C1646.7 187 1606.3 179 1566.2 179C1526 179 1486 187 1445.8 190.3C1405.7 193.7 1365.3 192.3 1325.2 188C1285 183.7 1245 176.3 1204.8 171.3C1164.7 166.3 1124.3 163.7 1084.2 164.3C1044 165 1004 169 963.8 170.7C923.7 172.3 883.3 171.7 843.2 173.3C803 175 763 179 722.8 179.3C682.7 179.7 642.3 176.3 602.2 176.7C562 177 522 181 481.8 181.7C441.7 182.3 401.3 179.7 361.2 177.3C321 175 281 173 240.8 173.3C200.7 173.7 160.3 176.3 120.2 179C80 181.7 40 184.3 20 185.7L0 187Z" fill="#553359"></path><path d="M0 201L20 201C40 201 80 201 120.2 201C160.3 201 200.7 201 240.8 201C281 201 321 201 361.2 201C401.3 201 441.7 201 481.8 201C522 201 562 201 602.2 201C642.3 201 682.7 201 722.8 201C763 201 803 201 843.2 201C883.3 201 923.7 201 963.8 201C1004 201 1044 201 1084.2 201C1124.3 201 1164.7 201 1204.8 201C1245 201 1285 201 1325.2 201C1365.3 201 1405.7 201 1445.8 201C1486 201 1526 201 1566.2 201C1606.3 201 1646.7 201 1686.8 201C1727 201 1767 201 1807.2 201C1847.3 201 1887.7 201 1927.8 201C1968 201 2008 201 2028 201L2048 201L2048 199L2028 196.3C2008 193.7 1968 188.3 1927.8 186.7C1887.7 185 1847.3 187 1807.2 189.7C1767 192.3 1727 195.7 1686.8 194.3C1646.7 193 1606.3 187 1566.2 186.3C1526 185.7 1486 190.3 1445.8 192.3C1405.7 194.3 1365.3 193.7 1325.2 190C1285 186.3 1245 179.7 1204.8 176.3C1164.7 173 1124.3 173 1084.2 175C1044 177 1004 181 963.8 182.3C923.7 183.7 883.3 182.3 843.2 183C803 183.7 763 186.3 722.8 186C682.7 185.7 642.3 182.3 602.2 183.3C562 184.3 522 189.7 481.8 190.3C441.7 191 401.3 187 361.2 184.3C321 181.7 281 180.3 240.8 180.7C200.7 181 160.3 183 120.2 184.3C80 185.7 40 186.3 20 186.7L0 187Z" fill="#45214a"></path></svg>