<svg id="visual" viewBox="0 0 4096 200" width="4096" height="200" xmlns="http://www.w3.org/2000/svg" xmlns:xlink="http://www.w3.org/1999/xlink" version="1.1"><path d="M0 93L40.2 83.3C80.3 73.7 160.7 54.3 241 52.3C321.3 50.3 401.7 65.7 482 61.7C562.3 57.7 642.7 34.3 723 24.3C803.3 14.3 883.7 17.7 964 24.7C1044.3 31.7 1124.7 42.3 1205 42C1285.3 41.7 1365.7 30.3 1446 34.7C1526.3 39 1606.7 59 1687 66.7C1767.3 74.3 1847.7 69.7 1927.8 69C2008 68.3 2088 71.7 2168.2 69C2248.3 66.3 2328.7 57.7 2409 47C2489.3 36.3 2569.7 23.7 2650 18C2730.3 12.3 2810.7 13.7 2891 21.3C2971.3 29 3051.7 43 3132 50.7C3212.3 58.3 3292.7 59.7 3373 53.3C3453.3 47 3533.7 33 3614 26C3694.3 19 3774.7 19 3855 23.3C3935.3 27.7 4015.7 36.3 4055.8 40.7L4096 45L4096 0L4055.8 0C4015.7 0 3935.3 0 3855 0C3774.7 0 3694.3 0 3614 0C3533.7 0 3453.3 0 3373 0C3292.7 0 3212.3 0 3132 0C3051.7 0 2971.3 0 2891 0C2810.7 0 2730.3 0 2650 0C2569.7 0 2489.3 0 2409 0C2328.7 0 2248.3 0 2168.2 0C2088 0 2008 0 1927.8 0C1847.7 0 1767.3 0 1687 0C1606.7 0 1526.3 0 1446 0C1365.7 0 1285.3 0 1205 0C1124.7 0 1044.3 0 964 0C883.7 0 803.3 0 723 0C642.7 0 562.3 0 482 0C401.7 0 321.3 0 241 0C160.7 0 80.3 0 40.2 0L0 0Z" fill="#21445b"></path><path d="M0 113L40.2 101C80.3 89 160.7 65 241 61.3C321.3 57.7 401.7 74.3 482 71.7C562.3 69 642.7 47 723 36.3C803.3 25.7 883.7 26.3 964 32.3C1044.3 38.3 1124.7 49.7 1205 49.7C1285.3 49.7 1365.7 38.3 1446 44C1526.3 49.7 1606.7 72.3 1687 79.3C1767.3 86.3 1847.7 77.7 1927.8 75.3C2008 73 2088 77 2168.2 75.7C2248.3 74.3 2328.7 67.7 2409 58.3C2489.3 49 2569.7 37 2650 31C2730.3 25 2810.7 25 2891 32.3C2971.3 39.7 3051.7 54.3 3132 63.3C3212.3 72.3 3292.7 75.7 3373 69C3453.3 62.3 3533.7 45.7 3614 37.7C3694.3 29.7 3774.7 30.3 3855 34C3935.3 37.7 4015.7 44.3 4055.8 47.7L4096 51L4096 43L4055.8 38.7C4015.7 34.3 3935.3 25.7 3855 21.3C3774.7 17 3694.3 17 3614 24C3533.7 31 3453.3 45 3373 51.3C3292.7 57.7 3212.3 56.3 3132 48.7C3051.7 41 2971.3 27 2891 19.3C2810.7 11.7 2730.3 10.3 2650 16C2569.7 21.7 2489.3 34.3 2409 45C2328.7 55.7 2248.3 64.3 2168.2 67C2088 69.7 2008 66.3 1927.8 67C1847.7 67.7 1767.3 72.3 1687 64.7C1606.7 57 1526.3 37 1446 32.7C1365.7 28.3 1285.3 39.7 1205 40C1124.7 40.3 1044.3 29.7 964 22.7C883.7 15.7 803.3 12.3 723 22.3C642.7 32.3 562.3 55.7 482 59.7C401.7 63.7 321.3 48.3 241 50.3C160.7 52.3 80.3 71.7 40.2 81.3L0 91Z" fill="#21425c"></path><path d="M0 113L40.2 103C80.3 93 160.7 73 241 69.3C321.3 65.7 401.7 78.3 482 76.3C562.3 74.3 642.7 57.7 723 48.3C803.3 39 883.7 37 964 42.7C1044.3 48.3 1124.7 61.7 1205 63C1285.3 64.3 1365.7 53.7 1446 58.3C1526.3 63 1606.7 83 1687 88C1767.3 93 1847.7 83 1927.8 80.3C2008 77.7 2088 82.3 2168.2 82C2248.3 81.7 2328.7 76.3 2409 67C2489.3 57.7 2569.7 44.3 2650 37.7C2730.3 31 2810.7 31 2891 40C2971.3 49 3051.7 67 3132 77.7C3212.3 88.3 3292.7 91.7 3373 83.7C3453.3 75.7 3533.7 56.3 3614 47.3C3694.3 38.3 3774.7 39.7 3855 43.3C3935.3 47 4015.7 53 4055.8 56L4096 59L4096 49L4055.8 45.7C4015.7 42.3 3935.3 35.7 3855 32C3774.7 28.3 3694.3 27.7 3614 35.7C3533.7 43.7 3453.3 60.3 3373 67C3292.7 73.7 3212.3 70.3 3132 61.3C3051.7 52.3 2971.3 37.7 2891 30.3C2810.7 23 2730.3 23 2650 29C2569.7 35 2489.3 47 2409 56.3C2328.7 65.7 2248.3 72.3 2168.2 73.7C2088 75 2008 71 1927.8 73.3C1847.7 75.7 1767.3 84.3 1687 77.3C1606.7 70.3 1526.3 47.7 1446 42C1365.7 36.3 1285.3 47.7 1205 47.7C1124.7 47.7 1044.3 36.3 964 30.3C883.7 24.3 803.3 23.7 723 34.3C642.7 45 562.3 67 482 69.7C401.7 72.3 321.3 55.7 241 59.3C160.7 63 80.3 87 40.2 99L0 111Z" fill="#233f5c"></path><path d="M0 121L40.2 110C80.3 99 160.7 77 241 77C321.3 77 401.7 99 482 102.7C562.3 106.3 642.7 91.7 723 82.3C803.3 73 883.7 69 964 68.7C1044.3 68.3 1124.7 71.7 1205 75.3C1285.3 79 1365.7 83 1446 92.7C1526.3 102.3 1606.7 117.7 1687 116.7C1767.3 115.7 1847.7 98.3 1927.8 94.3C2008 90.3 2088 99.7 2168.2 98C2248.3 96.3 2328.7 83.7 2409 72.7C2489.3 61.7 2569.7 52.3 2650 49C2730.3 45.7 2810.7 48.3 2891 59C2971.3 69.7 3051.7 88.3 3132 98C3212.3 107.7 3292.7 108.3 3373 97.7C3453.3 87 3533.7 65 3614 54.7C3694.3 44.3 3774.7 45.7 3855 53.3C3935.3 61 4015.7 75 4055.8 82L4096 89L4096 57L4055.8 54C4015.7 51 3935.3 45 3855 41.3C3774.7 37.7 3694.3 36.3 3614 45.3C3533.7 54.3 3453.3 73.7 3373 81.7C3292.7 89.7 3212.3 86.3 3132 75.7C3051.7 65 2971.3 47 2891 38C2810.7 29 2730.3 29 2650 35.7C2569.7 42.3 2489.3 55.7 2409 65C2328.7 74.3 2248.3 79.7 2168.2 80C2088 80.3 2008 75.7 1927.8 78.3C1847.7 81 1767.3 91 1687 86C1606.7 81 1526.3 61 1446 56.3C1365.7 51.7 1285.3 62.3 1205 61C1124.7 59.7 1044.3 46.3 964 40.7C883.7 35 803.3 37 723 46.3C642.7 55.7 562.3 72.3 482 74.3C401.7 76.3 321.3 63.7 241 67.3C160.7 71 80.3 91 40.2 101L0 111Z" fill="#253d5c"></path><path d="M0 135L40.2 124.7C80.3 114.3 160.7 93.7 241 93.3C321.3 93 401.7 113 482 113.7C562.3 114.3 642.7 95.7 723 86.3C803.3 77 883.7 77 964 79.3C1044.3 81.7 1124.7 86.3 1205 89C1285.3 91.7 1365.7 92.3 1446 99.3C1526.3 106.3 1606.7 119.7 1687 119.7C1767.3 119.7 1847.7 106.3 1927.8 103C2008 99.7 2088 106.3 2168.2 106C2248.3 105.7 2328.7 98.3 2409 88.7C2489.3 79 2569.7 67 2650 64C2730.3 61 2810.7 67 2891 77.7C2971.3 88.3 3051.7 103.7 3132 110C3212.3 116.3 3292.7 113.7 3373 102C3453.3 90.3 3533.7 69.7 3614 61C3694.3 52.3 3774.7 55.7 3855 63.7C3935.3 71.7 4015.7 84.3 4055.8 90.7L4096 97L4096 87L4055.8 80C4015.7 73 3935.3 59 3855 51.3C3774.7 43.7 3694.3 42.3 3614 52.7C3533.7 63 3453.3 85 3373 95.7C3292.7 106.3 3212.3 105.7 3132 96C3051.7 86.3 2971.3 67.7 2891 57C2810.7 46.3 2730.3 43.7 2650 47C2569.7 50.3 2489.3 59.7 2409 70.7C2328.7 81.7 2248.3 94.3 2168.2 96C2088 97.7 2008 88.3 1927.8 92.3C1847.7 96.3 1767.3 113.7 1687 114.7C1606.7 115.7 1526.3 100.3 1446 90.7C1365.7 81 1285.3 77 1205 73.3C1124.7 69.7 1044.3 66.3 964 66.7C883.7 67 803.3 71 723 80.3C642.7 89.7 562.3 104.3 482 100.7C401.7 97 321.3 75 241 75C160.7 75 80.3 97 40.2 108L0 119Z" fill="#283a5b"></path><path d="M0 139L40.2 130.7C80.3 122.3 160.7 105.7 241 105.3C321.3 105 401.7 121 482 122.7C562.3 124.3 642.7 111.7 723 104C803.3 96.3 883.7 93.7 964 94.7C1044.3 95.7 1124.7 100.3 1205 101C1285.3 101.7 1365.7 98.3 1446 105.7C1526.3 113 1606.7 131 1687 133C1767.3 135 1847.7 121 1927.8 119C2008 117 2088 127 2168.2 125.3C2248.3 123.7 2328.7 110.3 2409 97.7C2489.3 85 2569.7 73 2650 70C2730.3 67 2810.7 73 2891 83C2971.3 93 3051.7 107 3132 116C3212.3 125 3292.7 129 3373 117C3453.3 105 3533.7 77 3614 67.7C3694.3 58.3 3774.7 67.7 3855 79.7C3935.3 91.7 4015.7 106.3 4055.8 113.7L4096 121L4096 95L4055.8 88.7C4015.7 82.3 3935.3 69.7 3855 61.7C3774.7 53.7 3694.3 50.3 3614 59C3533.7 67.7 3453.3 88.3 3373 100C3292.7 111.7 3212.3 114.3 3132 108C3051.7 101.7 2971.3 86.3 2891 75.7C2810.7 65 2730.3 59 2650 62C2569.7 65 2489.3 77 2409 86.7C2328.7 96.3 2248.3 103.7 2168.2 104C2088 104.3 2008 97.7 1927.8 101C1847.7 104.3 1767.3 117.7 1687 117.7C1606.7 117.7 1526.3 104.3 1446 97.3C1365.7 90.3 1285.3 89.7 1205 87C1124.7 84.3 1044.3 79.7 964 77.3C883.7 75 803.3 75 723 84.3C642.7 93.7 562.3 112.3 482 111.7C401.7 111 321.3 91 241 91.3C160.7 91.7 80.3 112.3 40.2 122.7L0 133Z" fill="#2c375b"></path><path d="M0 155L40.2 149.3C80.3 143.7 160.7 132.3 241 129.7C321.3 127 401.7 133 482 134.7C562.3 136.3 642.7 133.7 723 131C803.3 128.3 883.7 125.7 964 124.7C1044.3 123.7 1124.7 124.3 1205 125.7C1285.3 127 1365.7 129 1446 138.3C1526.3 147.7 1606.7 164.3 1687 161C1767.3 157.7 1847.7 134.3 1927.8 127.3C2008 120.3 2088 129.7 2168.2 130C2248.3 130.3 2328.7 121.7 2409 110.7C2489.3 99.7 2569.7 86.3 2650 84.3C2730.3 82.3 2810.7 91.7 2891 103C2971.3 114.3 3051.7 127.7 3132 134C3212.3 140.3 3292.7 139.7 3373 132C3453.3 124.3 3533.7 109.7 3614 102.3C3694.3 95 3774.7 95 3855 105.7C3935.3 116.3 4015.7 137.7 4055.8 148.3L4096 159L4096 119L4055.8 111.7C4015.7 104.3 3935.3 89.7 3855 77.7C3774.7 65.7 3694.3 56.3 3614 65.7C3533.7 75 3453.3 103 3373 115C3292.7 127 3212.3 123 3132 114C3051.7 105 2971.3 91 2891 81C2810.7 71 2730.3 65 2650 68C2569.7 71 2489.3 83 2409 95.7C2328.7 108.3 2248.3 121.7 2168.2 123.3C2088 125 2008 115 1927.8 117C1847.7 119 1767.3 133 1687 131C1606.7 129 1526.3 111 1446 103.7C1365.7 96.3 1285.3 99.7 1205 99C1124.7 98.3 1044.3 93.7 964 92.7C883.7 91.7 803.3 94.3 723 102C642.7 109.7 562.3 122.3 482 120.7C401.7 119 321.3 103 241 103.3C160.7 103.7 80.3 120.3 40.2 128.7L0 137Z" fill="#303459"></path><path d="M0 179L40.2 171.3C80.3 163.7 160.7 148.3 241 145.3C321.3 142.3 401.7 151.7 482 152.3C562.3 153 642.7 145 723 138.7C803.3 132.3 883.7 127.7 964 129C1044.3 130.3 1124.7 137.7 1205 139.3C1285.3 141 1365.7 137 1446 143C1526.3 149 1606.7 165 1687 162.7C1767.3 160.3 1847.7 139.7 1927.8 134.3C2008 129 2088 139 2168.2 142C2248.3 145 2328.7 141 2409 129.3C2489.3 117.7 2569.7 98.3 2650 96C2730.3 93.7 2810.7 108.3 2891 121C2971.3 133.7 3051.7 144.3 3132 148.3C3212.3 152.3 3292.7 149.7 3373 142.3C3453.3 135 3533.7 123 3614 117.7C3694.3 112.3 3774.7 113.7 3855 125C3935.3 136.3 4015.7 157.7 4055.8 168.3L4096 179L4096 157L4055.8 146.3C4015.7 135.7 3935.3 114.3 3855 103.7C3774.7 93 3694.3 93 3614 100.3C3533.7 107.7 3453.3 122.3 3373 130C3292.7 137.7 3212.3 138.3 3132 132C3051.7 125.7 2971.3 112.3 2891 101C2810.7 89.7 2730.3 80.3 2650 82.3C2569.7 84.3 2489.3 97.7 2409 108.7C2328.7 119.7 2248.3 128.3 2168.2 128C2088 127.7 2008 118.3 1927.8 125.3C1847.7 132.3 1767.3 155.7 1687 159C1606.7 162.3 1526.3 145.7 1446 136.3C1365.7 127 1285.3 125 1205 123.7C1124.7 122.3 1044.3 121.7 964 122.7C883.7 123.7 803.3 126.3 723 129C642.7 131.7 562.3 134.3 482 132.7C401.7 131 321.3 125 241 127.7C160.7 130.3 80.3 141.7 40.2 147.3L0 153Z" fill="#343157"></path><path d="M0 189L40.2 181.3C80.3 173.7 160.7 158.3 241 154C321.3 149.7 401.7 156.3 482 155.3C562.3 154.3 642.7 145.7 723 141.7C803.3 137.7 883.7 138.3 964 142.3C1044.3 146.3 1124.7 153.7 1205 153C1285.3 152.3 1365.7 143.7 1446 148.3C1526.3 153 1606.7 171 1687 171C1767.3 171 1847.7 153 1927.8 149.3C2008 145.7 2088 156.3 2168.2 158C2248.3 159.7 2328.7 152.3 2409 138.7C2489.3 125 2569.7 105 2650 103C2730.3 101 2810.7 117 2891 129.3C2971.3 141.7 3051.7 150.3 3132 153C3212.3 155.7 3292.7 152.3 3373 145.3C3453.3 138.3 3533.7 127.7 3614 123.3C3694.3 119 3774.7 121 3855 132.3C3935.3 143.7 4015.7 164.3 4055.8 174.7L4096 185L4096 177L4055.8 166.3C4015.7 155.7 3935.3 134.3 3855 123C3774.7 111.7 3694.3 110.3 3614 115.7C3533.7 121 3453.3 133 3373 140.3C3292.7 147.7 3212.3 150.3 3132 146.3C3051.7 142.3 2971.3 131.7 2891 119C2810.7 106.3 2730.3 91.7 2650 94C2569.7 96.3 2489.3 115.7 2409 127.3C2328.7 139 2248.3 143 2168.2 140C2088 137 2008 127 1927.8 132.3C1847.7 137.7 1767.3 158.3 1687 160.7C1606.7 163 1526.3 147 1446 141C1365.7 135 1285.3 139 1205 137.3C1124.7 135.7 1044.3 128.3 964 127C883.7 125.7 803.3 130.3 723 136.7C642.7 143 562.3 151 482 150.3C401.7 149.7 321.3 140.3 241 143.3C160.7 146.3 80.3 161.7 40.2 169.3L0 177Z" fill="#392d55"></path><path d="M0 201L40.2 196C80.3 191 160.7 181 241 177.3C321.3 173.7 401.7 176.3 482 178.3C562.3 180.3 642.7 181.7 723 181C803.3 180.3 883.7 177.7 964 176.3C1044.3 175 1124.7 175 1205 176.7C1285.3 178.3 1365.7 181.7 1446 185.7C1526.3 189.7 1606.7 194.3 1687 192.3C1767.3 190.3 1847.7 181.7 1927.8 179C2008 176.3 2088 179.7 2168.2 180C2248.3 180.3 2328.7 177.7 2409 180C2489.3 182.3 2569.7 189.7 2650 192C2730.3 194.3 2810.7 191.7 2891 190.7C2971.3 189.7 3051.7 190.3 3132 190.7C3212.3 191 3292.7 191 3373 188C3453.3 185 3533.7 179 3614 177.7C3694.3 176.3 3774.7 179.7 3855 182.3C3935.3 185 4015.7 187 4055.8 188L4096 189L4096 183L4055.8 172.7C4015.7 162.3 3935.3 141.7 3855 130.3C3774.7 119 3694.3 117 3614 121.3C3533.7 125.7 3453.3 136.3 3373 143.3C3292.7 150.3 3212.3 153.7 3132 151C3051.7 148.3 2971.3 139.7 2891 127.3C2810.7 115 2730.3 99 2650 101C2569.7 103 2489.3 123 2409 136.7C2328.7 150.3 2248.3 157.7 2168.2 156C2088 154.3 2008 143.7 1927.8 147.3C1847.7 151 1767.3 169 1687 169C1606.7 169 1526.3 151 1446 146.3C1365.7 141.7 1285.3 150.3 1205 151C1124.7 151.7 1044.3 144.3 964 140.3C883.7 136.3 803.3 135.7 723 139.7C642.7 143.7 562.3 152.3 482 153.3C401.7 154.3 321.3 147.7 241 152C160.7 156.3 80.3 171.7 40.2 179.3L0 187Z" fill="#3d2a52"></path><path d="M0 201L40.2 198.3C80.3 195.7 160.7 190.3 241 188.3C321.3 186.3 401.7 187.7 482 189C562.3 190.3 642.7 191.7 723 191C803.3 190.3 883.7 187.7 964 187C1044.3 186.3 1124.7 187.7 1205 188.3C1285.3 189 1365.7 189 1446 191C1526.3 193 1606.7 197 1687 196.3C1767.3 195.7 1847.7 190.3 1927.8 187.7C2008 185 2088 185 2168.2 185C2248.3 185 2328.7 185 2409 187.7C2489.3 190.3 2569.7 195.7 2650 196.3C2730.3 197 2810.7 193 2891 191.3C2971.3 189.7 3051.7 190.3 3132 192C3212.3 193.7 3292.7 196.3 3373 195.7C3453.3 195 3533.7 191 3614 188.7C3694.3 186.3 3774.7 185.7 3855 186.7C3935.3 187.7 4015.7 190.3 4055.8 191.7L4096 193L4096 187L4055.8 186C4015.7 185 3935.3 183 3855 180.3C3774.7 177.7 3694.3 174.3 3614 175.7C3533.7 177 3453.3 183 3373 186C3292.7 189 3212.3 189 3132 188.7C3051.7 188.3 2971.3 187.7 2891 188.7C2810.7 189.7 2730.3 192.3 2650 190C2569.7 187.7 2489.3 180.3 2409 178C2328.7 175.7 2248.3 178.3 2168.2 178C2088 177.7 2008 174.3 1927.8 177C1847.7 179.7 1767.3 188.3 1687 190.3C1606.7 192.3 1526.3 187.7 1446 183.7C1365.7 179.7 1285.3 176.3 1205 174.7C1124.7 173 1044.3 173 964 174.3C883.7 175.7 803.3 178.3 723 179C642.7 179.7 562.3 178.3 482 176.3C401.7 174.3 321.3 171.7 241 175.3C160.7 179 80.3 189 40.2 194L0 199Z" fill="#41254e"></path><path d="M0 201L40.2 201C80.3 201 160.7 201 241 201C321.3 201 401.7 201 482 201C562.3 201 642.7 201 723 201C803.3 201 883.7 201 964 201C1044.3 201 1124.7 201 1205 201C1285.3 201 1365.7 201 1446 201C1526.3 201 1606.7 201 1687 201C1767.3 201 1847.7 201 1927.8 201C2008 201 2088 201 2168.2 201C2248.3 201 2328.7 201 2409 201C2489.3 201 2569.7 201 2650 201C2730.3 201 2810.7 201 2891 201C2971.3 201 3051.7 201 3132 201C3212.3 201 3292.7 201 3373 201C3453.3 201 3533.7 201 3614 201C3694.3 201 3774.7 201 3855 201C3935.3 201 4015.7 201 4055.8 201L4096 201L4096 191L4055.8 189.7C4015.7 188.3 3935.3 185.7 3855 184.7C3774.7 183.7 3694.3 184.3 3614 186.7C3533.7 189 3453.3 193 3373 193.7C3292.7 194.3 3212.3 191.7 3132 190C3051.7 188.3 2971.3 187.7 2891 189.3C2810.7 191 2730.3 195 2650 194.3C2569.7 193.7 2489.3 188.3 2409 185.7C2328.7 183 2248.3 183 2168.2 183C2088 183 2008 183 1927.8 185.7C1847.7 188.3 1767.3 193.7 1687 194.3C1606.7 195 1526.3 191 1446 189C1365.7 187 1285.3 187 1205 186.3C1124.7 185.7 1044.3 184.3 964 185C883.7 185.7 803.3 188.3 723 189C642.7 189.7 562.3 188.3 482 187C401.7 185.7 321.3 184.3 241 186.3C160.7 188.3 80.3 193.7 40.2 196.3L0 199Z" fill="#45214a"></path></svg>